<?xml version="1.0" encoding="UTF-8" standalone="no"?>
<!DOCTYPE svg PUBLIC "-//W3C//DTD SVG 1.1//EN" "http://www.w3.org/Graphics/SVG/1.1/DTD/svg11.dtd">
<svg width="100%" height="100%" viewBox="0 0 1080 420" version="1.1" xmlns="http://www.w3.org/2000/svg" xmlns:xlink="http://www.w3.org/1999/xlink" xml:space="preserve" xmlns:serif="http://www.serif.com/" style="fill-rule:evenodd;clip-rule:evenodd;stroke-linejoin:round;stroke-miterlimit:2;">
    <g transform="matrix(1,0,0,1,-2666,0)">
        <g id="lg-hz-bw" transform="matrix(0.495576,0,0,0.194278,386.338046,0)">
            <rect x="4600.023" y="0" width="2179.282" height="2161.846" style="fill:none;"/>
            <g transform="matrix(6.105221,0,0,23.625499,-54829.741043,-28329.900243)">
                <path d="M9767.619,1234.703C9767.602,1234.684 9767.61,1234.66 9767.637,1234.648C9768.534,1234.259 9769.249,1233.705 9769.683,1233.051C9769.754,1232.939 9769.945,1232.884 9770.118,1232.925C9774.348,1233.939 9820.184,1244.944 9823.129,1245.651C9823.218,1245.672 9823.277,1245.728 9823.277,1245.791L9823.277,1275.599C9823.277,1277.2 9821.395,1278.497 9819.073,1278.497L9759.779,1278.497C9757.457,1278.497 9755.575,1277.2 9755.575,1275.599L9755.575,1215.786C9755.575,1214.185 9757.457,1212.887 9759.779,1212.887L9819.073,1212.887C9821.395,1212.887 9823.277,1214.185 9823.277,1215.786L9823.277,1217.383C9823.277,1217.446 9823.218,1217.502 9823.129,1217.523L9770.119,1230.25C9769.945,1230.292 9769.753,1230.236 9769.682,1230.124C9768.826,1228.831 9766.869,1227.927 9764.593,1227.927C9761.529,1227.927 9759.041,1229.567 9759.041,1231.587C9759.041,1233.607 9761.529,1235.247 9764.593,1235.247C9764.621,1235.247 9764.644,1235.262 9764.644,1235.28L9764.753,1268.492C9764.754,1268.623 9764.866,1268.744 9765.046,1268.807C9765.226,1268.87 9765.445,1268.866 9765.618,1268.795L9789.775,1258.34C9789.999,1258.249 9790.04,1258.09 9789.909,1257.949L9767.619,1234.703ZM9813.617,1252.058L9765.64,1272.358C9765.38,1272.468 9765.26,1272.679 9765.346,1272.876C9765.433,1273.073 9765.704,1273.208 9766.012,1273.208L9813.989,1273.139C9814.371,1273.138 9814.679,1272.932 9814.679,1272.678L9814.679,1252.448C9814.679,1252.279 9814.542,1252.125 9814.321,1252.044C9814.1,1251.963 9813.83,1251.968 9813.617,1252.058ZM9770.097,1231.1C9770.08,1231.015 9770.168,1230.935 9770.297,1230.92L9823.012,1224.801C9823.078,1224.794 9823.146,1224.806 9823.197,1224.834C9823.248,1224.862 9823.277,1224.904 9823.277,1224.948L9823.277,1228.02C9823.277,1228.097 9823.188,1228.161 9823.072,1228.168L9770.368,1231.247C9770.235,1231.255 9770.116,1231.192 9770.098,1231.104L9770.097,1231.1ZM9770.098,1232.066C9770.115,1231.981 9770.232,1231.919 9770.362,1231.927L9823.072,1235.006C9823.188,1235.013 9823.277,1235.077 9823.277,1235.154L9823.277,1238.226C9823.277,1238.27 9823.248,1238.312 9823.197,1238.34C9823.146,1238.368 9823.078,1238.38 9823.012,1238.373L9770.302,1232.255C9770.17,1232.239 9770.08,1232.158 9770.098,1232.07L9770.098,1232.066ZM9833.998,1245.503C9833.328,1245.503 9832.784,1245.145 9832.784,1244.703L9832.784,1218.471C9832.784,1218.029 9833.328,1217.671 9833.998,1217.671L9842.126,1217.671C9842.796,1217.671 9843.34,1218.029 9843.34,1218.471L9843.34,1239.344C9843.34,1239.786 9843.883,1240.144 9844.554,1240.144L9862.057,1240.144C9862.379,1240.144 9862.688,1240.229 9862.916,1240.379C9863.143,1240.529 9863.271,1240.732 9863.271,1240.944L9863.271,1244.703C9863.271,1245.145 9862.728,1245.503 9862.057,1245.503L9833.998,1245.503ZM9883.889,1214.956C9883.493,1214.956 9883.121,1214.829 9882.894,1214.615C9882.667,1214.4 9882.613,1214.127 9882.749,1213.881L9883.119,1213.212C9883.254,1212.97 9883.556,1212.786 9883.933,1212.716L9891.703,1211.285C9892.112,1211.21 9892.551,1211.28 9892.86,1211.472C9893.17,1211.663 9893.305,1211.947 9893.217,1212.221L9892.543,1214.322C9892.424,1214.691 9891.929,1214.956 9891.355,1214.956L9883.889,1214.956ZM9866.477,1245.503C9866.077,1245.503 9865.703,1245.374 9865.477,1245.157C9865.25,1244.94 9865.2,1244.664 9865.343,1244.418L9880.544,1218.185C9880.723,1217.876 9881.174,1217.671 9881.678,1217.671L9891.414,1217.671C9891.918,1217.671 9892.369,1217.876 9892.548,1218.185L9907.749,1244.418C9907.892,1244.664 9907.842,1244.94 9907.615,1245.157C9907.389,1245.374 9907.015,1245.503 9906.615,1245.503L9898.188,1245.503C9897.69,1245.503 9897.243,1245.303 9897.06,1244.999L9893.865,1239.698C9893.682,1239.393 9893.235,1239.193 9892.737,1239.193L9880.294,1239.193C9879.794,1239.193 9879.346,1239.396 9879.164,1239.703L9876.03,1244.994C9875.848,1245.301 9875.399,1245.503 9874.899,1245.503L9866.477,1245.503ZM9881.532,1232.966C9881.39,1233.212 9881.441,1233.488 9881.667,1233.705C9881.894,1233.921 9882.268,1234.05 9882.667,1234.05L9890.353,1234.05C9890.752,1234.05 9891.127,1233.921 9891.353,1233.704C9891.579,1233.486 9891.629,1233.21 9891.486,1232.964L9887.62,1226.327C9887.44,1226.017 9886.988,1225.813 9886.485,1225.813C9885.981,1225.814 9885.531,1226.019 9885.352,1226.33L9881.532,1232.966ZM9910.951,1245.503C9910.63,1245.503 9910.321,1245.419 9910.093,1245.269C9909.865,1245.119 9909.738,1244.915 9909.738,1244.703L9909.738,1242.21C9909.738,1242.047 9909.813,1241.887 9909.955,1241.753L9928.21,1224.46C9928.469,1224.215 9928.499,1223.896 9928.29,1223.632C9928.081,1223.368 9927.666,1223.203 9927.214,1223.203L9911.935,1223.203C9911.613,1223.203 9911.304,1223.118 9911.077,1222.968C9910.849,1222.818 9910.721,1222.615 9910.721,1222.403L9910.721,1218.471C9910.721,1218.259 9910.849,1218.055 9911.077,1217.905C9911.304,1217.755 9911.613,1217.671 9911.935,1217.671L9942.158,1217.671C9942.48,1217.671 9942.788,1217.755 9943.016,1217.905C9943.244,1218.055 9943.371,1218.259 9943.371,1218.471L9943.371,1221.31C9943.371,1221.473 9943.296,1221.632 9943.154,1221.766L9925.094,1238.887C9924.836,1239.132 9924.805,1239.451 9925.015,1239.715C9925.224,1239.979 9925.639,1240.144 9926.091,1240.144L9942.551,1240.144C9943.221,1240.144 9943.765,1240.502 9943.765,1240.944L9943.765,1244.703C9943.765,1244.915 9943.637,1245.119 9943.409,1245.269C9943.182,1245.419 9942.873,1245.503 9942.551,1245.503L9910.951,1245.503ZM9946.857,1245.503C9946.458,1245.503 9946.084,1245.374 9945.857,1245.157C9945.631,1244.94 9945.581,1244.664 9945.723,1244.418L9960.924,1218.185C9961.104,1217.876 9961.555,1217.671 9962.058,1217.671L9971.795,1217.671C9972.298,1217.671 9972.749,1217.876 9972.929,1218.185L9988.13,1244.418C9988.272,1244.664 9988.222,1244.94 9987.996,1245.157C9987.769,1245.374 9987.395,1245.503 9986.996,1245.503L9978.568,1245.503C9978.071,1245.503 9977.624,1245.303 9977.44,1244.999L9974.246,1239.698C9974.062,1239.393 9973.615,1239.193 9973.118,1239.193L9960.675,1239.193C9960.175,1239.193 9959.726,1239.396 9959.544,1239.703L9956.41,1244.994C9956.228,1245.301 9955.779,1245.503 9955.279,1245.503L9946.857,1245.503ZM9961.912,1232.966C9961.77,1233.212 9961.821,1233.488 9962.048,1233.705C9962.274,1233.921 9962.648,1234.05 9963.047,1234.05L9970.733,1234.05C9971.133,1234.05 9971.507,1233.921 9971.733,1233.704C9971.96,1233.486 9972.009,1233.21 9971.866,1232.964L9968.001,1226.327C9967.82,1226.017 9967.369,1225.813 9966.865,1225.813C9966.362,1225.814 9965.911,1226.019 9965.733,1226.33L9961.912,1232.966ZM9991.571,1245.503C9990.9,1245.503 9990.357,1245.145 9990.357,1244.703L9990.357,1218.471C9990.357,1218.259 9990.485,1218.055 9990.712,1217.905C9990.94,1217.755 9991.249,1217.671 9991.571,1217.671L10011.468,1217.671C10016.451,1217.671 10020.122,1218.535 10022.483,1220.264C10024.843,1221.993 10026.023,1224.312 10026.023,1227.222C10026.023,1229.095 10025.302,1230.737 10023.859,1232.149C10022.714,1233.27 10021.239,1234.164 10019.432,1234.83C10019.123,1234.942 10018.904,1235.138 10018.833,1235.365C10018.762,1235.593 10018.846,1235.83 10019.063,1236.013C10019.195,1236.128 10019.32,1236.243 10019.434,1236.363C10019.806,1236.752 10020.21,1237.292 10020.647,1237.983L10024.887,1244.383C10025.051,1244.63 10025.015,1244.915 10024.791,1245.141C10024.566,1245.367 10024.184,1245.503 10023.775,1245.503L10015.408,1245.503C10014.926,1245.503 10014.49,1245.316 10014.296,1245.025L10009.895,1238.416C10009.501,1237.81 10008.999,1237.371 10008.387,1237.097C10007.775,1236.824 10006.901,1236.687 10005.764,1236.687L10002.126,1236.687C10001.804,1236.687 10001.496,1236.771 10001.268,1236.921C10001.04,1237.071 10000.912,1237.275 10000.912,1237.487L10000.912,1244.703C10000.912,1245.145 10000.369,1245.503 9999.699,1245.503L9991.571,1245.503ZM10000.912,1230.528C10000.912,1230.969 10001.456,1231.328 10002.126,1231.328L10008.714,1231.328C10010.769,1231.328 10012.375,1230.989 10013.533,1230.312C10014.692,1229.635 10015.271,1228.605 10015.271,1227.222C10015.271,1224.427 10013.238,1223.03 10009.173,1223.03L10002.126,1223.03C10001.456,1223.03 10000.912,1223.388 10000.912,1223.83L10000.912,1230.528ZM10048.839,1245.935C10041.977,1245.935 10036.754,1244.783 10033.169,1242.478C10029.585,1240.173 10027.793,1236.586 10027.793,1231.717C10027.793,1226.559 10029.585,1222.857 10033.169,1220.61C10036.754,1218.362 10041.977,1217.239 10048.839,1217.239C10055.701,1217.239 10060.925,1218.362 10064.509,1220.61C10068.093,1222.857 10069.885,1226.559 10069.885,1231.717C10069.885,1236.586 10068.093,1240.173 10064.509,1242.478C10060.925,1244.783 10055.701,1245.935 10048.839,1245.935ZM10048.839,1240.015C10052.379,1240.015 10054.969,1239.345 10056.608,1238.005C10058.247,1236.665 10059.067,1234.569 10059.067,1231.717C10059.067,1228.605 10058.247,1226.408 10056.608,1225.126C10054.969,1223.844 10052.379,1223.203 10048.839,1223.203C10045.255,1223.203 10042.643,1223.844 10041.004,1225.126C10039.365,1226.408 10038.546,1228.605 10038.546,1231.717C10038.546,1234.569 10039.365,1236.665 10041.004,1238.005C10042.643,1239.345 10045.255,1240.015 10048.839,1240.015ZM9833.993,1273.208C9833.325,1273.208 9832.784,1272.883 9832.784,1272.482L9832.784,1248.697C9832.784,1248.296 9833.325,1247.971 9833.993,1247.971L9862.118,1247.971C9862.785,1247.971 9863.326,1248.296 9863.326,1248.697L9863.326,1252.105C9863.326,1252.297 9863.199,1252.482 9862.972,1252.618C9862.745,1252.754 9862.438,1252.83 9862.118,1252.83L9844.499,1252.83C9843.832,1252.83 9843.291,1253.155 9843.291,1253.556L9843.291,1257.395C9843.291,1257.796 9843.832,1258.121 9844.499,1258.121L9859.703,1258.121C9860.023,1258.121 9860.331,1258.197 9860.557,1258.333C9860.784,1258.469 9860.911,1258.654 9860.911,1258.846L9860.911,1262.333C9860.911,1262.525 9860.784,1262.71 9860.557,1262.846C9860.331,1262.982 9860.023,1263.058 9859.703,1263.058L9844.499,1263.058C9844.179,1263.058 9843.872,1263.135 9843.645,1263.271C9843.418,1263.407 9843.291,1263.591 9843.291,1263.784L9843.291,1272.482C9843.291,1272.883 9842.75,1273.208 9842.083,1273.208L9833.993,1273.208ZM9870.212,1273.208C9869.544,1273.208 9869.003,1272.883 9869.003,1272.482L9869.003,1248.697C9869.003,1248.296 9869.544,1247.971 9870.212,1247.971L9898.793,1247.971C9899.114,1247.971 9899.421,1248.048 9899.648,1248.184C9899.874,1248.32 9900.002,1248.504 9900.002,1248.697L9900.002,1252.105C9900.002,1252.297 9899.874,1252.482 9899.648,1252.618C9899.421,1252.754 9899.114,1252.83 9898.793,1252.83L9880.718,1252.83C9880.051,1252.83 9879.51,1253.155 9879.51,1253.556L9879.51,1257.395C9879.51,1257.796 9880.051,1258.121 9880.718,1258.121L9896.379,1258.121C9896.699,1258.121 9897.007,1258.197 9897.233,1258.333C9897.46,1258.469 9897.587,1258.654 9897.587,1258.846L9897.587,1262.333C9897.587,1262.525 9897.46,1262.71 9897.233,1262.846C9897.007,1262.982 9896.699,1263.058 9896.379,1263.058L9880.718,1263.058C9880.051,1263.058 9879.51,1263.383 9879.51,1263.784L9879.51,1267.623C9879.51,1268.024 9880.051,1268.349 9880.718,1268.349L9898.793,1268.349C9899.114,1268.349 9899.421,1268.425 9899.648,1268.561C9899.874,1268.697 9900.002,1268.882 9900.002,1269.074L9900.002,1272.482C9900.002,1272.675 9899.874,1272.859 9899.648,1272.995C9899.421,1273.131 9899.114,1273.208 9898.793,1273.208L9870.212,1273.208ZM9908.685,1273.208C9908.018,1273.208 9907.477,1272.883 9907.477,1272.482L9907.477,1248.697C9907.477,1248.504 9907.604,1248.32 9907.831,1248.184C9908.057,1248.048 9908.365,1247.971 9908.685,1247.971L9928.49,1247.971C9933.45,1247.971 9937.105,1248.755 9939.454,1250.322C9941.803,1251.89 9942.978,1253.993 9942.978,1256.632C9942.978,1258.33 9942.26,1259.819 9940.824,1261.099C9939.685,1262.115 9938.216,1262.926 9936.418,1263.53C9936.11,1263.632 9935.892,1263.809 9935.821,1264.016C9935.751,1264.222 9935.834,1264.437 9936.05,1264.603C9936.182,1264.707 9936.306,1264.812 9936.419,1264.92C9936.789,1265.272 9937.192,1265.762 9937.627,1266.389L9941.848,1272.192C9942.011,1272.416 9941.974,1272.675 9941.751,1272.88C9941.528,1273.084 9941.148,1273.208 9940.74,1273.208L9932.412,1273.208C9931.933,1273.208 9931.498,1273.038 9931.306,1272.774L9926.924,1266.781C9926.533,1266.232 9926.032,1265.834 9925.423,1265.586C9924.814,1265.338 9923.944,1265.214 9922.813,1265.214L9919.192,1265.214C9918.871,1265.214 9918.564,1265.29 9918.337,1265.426C9918.111,1265.562 9917.984,1265.747 9917.984,1265.939L9917.984,1272.482C9917.984,1272.883 9917.443,1273.208 9916.775,1273.208L9908.685,1273.208ZM9917.984,1259.629C9917.984,1260.03 9918.525,1260.354 9919.192,1260.354L9925.75,1260.354C9927.794,1260.354 9929.393,1260.047 9930.546,1259.433C9931.699,1258.82 9932.275,1257.886 9932.275,1256.632C9932.275,1254.097 9930.252,1252.83 9926.206,1252.83L9919.192,1252.83C9918.525,1252.83 9917.984,1253.155 9917.984,1253.556L9917.984,1259.629ZM9950.351,1273.208C9949.683,1273.208 9949.142,1272.883 9949.142,1272.482L9949.142,1248.697C9949.142,1248.504 9949.27,1248.32 9949.496,1248.184C9949.723,1248.048 9950.03,1247.971 9950.351,1247.971L9970.156,1247.971C9975.116,1247.971 9978.77,1248.755 9981.12,1250.322C9983.469,1251.89 9984.644,1253.993 9984.644,1256.632C9984.644,1258.33 9983.926,1259.819 9982.49,1261.099C9981.35,1262.115 9979.881,1262.926 9978.083,1263.53C9977.776,1263.632 9977.558,1263.809 9977.487,1264.016C9977.416,1264.222 9977.5,1264.437 9977.716,1264.603C9977.847,1264.707 9977.972,1264.812 9978.085,1264.92C9978.455,1265.272 9978.857,1265.762 9979.292,1266.389L9983.513,1272.192C9983.676,1272.416 9983.64,1272.675 9983.417,1272.88C9983.194,1273.084 9982.813,1273.208 9982.406,1273.208L9974.077,1273.208C9973.598,1273.208 9973.164,1273.038 9972.971,1272.774L9968.59,1266.781C9968.198,1266.232 9967.698,1265.834 9967.089,1265.586C9966.48,1265.338 9965.609,1265.214 9964.478,1265.214L9960.857,1265.214C9960.537,1265.214 9960.23,1265.29 9960.003,1265.426C9959.776,1265.562 9959.649,1265.747 9959.649,1265.939L9959.649,1272.482C9959.649,1272.883 9959.108,1273.208 9958.441,1273.208L9950.351,1273.208ZM9959.649,1259.629C9959.649,1260.03 9960.19,1260.354 9960.857,1260.354L9967.415,1260.354C9969.46,1260.354 9971.059,1260.047 9972.212,1259.433C9973.365,1258.82 9973.941,1257.886 9973.941,1256.632C9973.941,1254.097 9971.918,1252.83 9967.872,1252.83L9960.857,1252.83C9960.19,1252.83 9959.649,1253.155 9959.649,1253.556L9959.649,1259.629ZM9989.549,1273.208C9989.151,1273.208 9988.779,1273.09 9988.553,1272.894C9988.328,1272.697 9988.278,1272.446 9988.42,1272.223L10003.551,1248.438C10003.73,1248.157 10004.179,1247.971 10004.679,1247.971L10014.371,1247.971C10014.872,1247.971 10015.321,1248.157 10015.5,1248.438L10030.63,1272.223C10030.772,1272.446 10030.722,1272.697 10030.497,1272.894C10030.271,1273.09 10029.899,1273.208 10029.502,1273.208L10021.113,1273.208C10020.618,1273.208 10020.173,1273.026 10019.99,1272.75L10016.811,1267.944C10016.628,1267.668 10016.183,1267.486 10015.688,1267.486L10003.303,1267.486C10002.805,1267.486 10002.358,1267.67 10002.177,1267.948L9999.058,1272.746C9998.877,1273.025 9998.43,1273.208 9997.932,1273.208L9989.549,1273.208ZM10004.534,1261.84C10004.393,1262.063 10004.444,1262.313 10004.669,1262.51C10004.895,1262.706 10005.267,1262.823 10005.664,1262.823L10013.314,1262.823C10013.712,1262.823 10014.085,1262.705 10014.31,1262.509C10014.535,1262.312 10014.585,1262.061 10014.442,1261.838L10010.595,1255.82C10010.415,1255.539 10009.965,1255.354 10009.464,1255.354C10008.963,1255.355 10008.515,1255.541 10008.337,1255.822L10004.534,1261.84ZM10035.307,1273.208C10034.987,1273.208 10034.68,1273.131 10034.453,1272.995C10034.226,1272.859 10034.099,1272.675 10034.099,1272.482L10034.099,1270.222C10034.099,1270.074 10034.175,1269.929 10034.316,1269.808L10052.487,1254.127C10052.744,1253.905 10052.774,1253.616 10052.566,1253.377C10052.357,1253.137 10051.945,1252.987 10051.495,1252.987L10036.286,1252.987C10035.966,1252.987 10035.659,1252.911 10035.432,1252.775C10035.205,1252.639 10035.078,1252.454 10035.078,1252.262L10035.078,1248.697C10035.078,1248.504 10035.205,1248.32 10035.432,1248.184C10035.659,1248.048 10035.966,1247.971 10036.286,1247.971L10066.369,1247.971C10066.69,1247.971 10066.997,1248.048 10067.223,1248.184C10067.45,1248.32 10067.577,1248.504 10067.577,1248.697L10067.577,1251.271C10067.577,1251.419 10067.502,1251.563 10067.361,1251.685L10049.385,1267.209C10049.128,1267.431 10049.097,1267.72 10049.306,1267.959C10049.514,1268.199 10049.927,1268.349 10050.377,1268.349L10066.761,1268.349C10067.428,1268.349 10067.969,1268.673 10067.969,1269.074L10067.969,1272.482C10067.969,1272.675 10067.842,1272.859 10067.615,1272.995C10067.388,1273.131 10067.081,1273.208 10066.761,1273.208L10035.307,1273.208Z"/>
            </g>
        </g>
    </g>
</svg>
