<?xml version="1.0" encoding="UTF-8" standalone="no"?>
<!DOCTYPE svg PUBLIC "-//W3C//DTD SVG 1.1//EN" "http://www.w3.org/Graphics/SVG/1.1/DTD/svg11.dtd">
<svg width="100%" height="100%" viewBox="0 0 2300 400" version="1.1" xmlns="http://www.w3.org/2000/svg" xmlns:xlink="http://www.w3.org/1999/xlink" xml:space="preserve" xmlns:serif="http://www.serif.com/" style="fill-rule:evenodd;clip-rule:evenodd;stroke-linejoin:round;stroke-miterlimit:2;">
    <g transform="matrix(1,0,0,1,-2603,0)">
        <g id="lg-hz-color-white" transform="matrix(1.055394,0,0,0.185027,-2251.83564,0)">
            <rect x="4600.023" y="0" width="2179.282" height="2161.846" style="fill:none;"/>
            <g transform="matrix(0.454405,0,0,4.073025,4941.413205,-263.164868)">
                <path d="M327.435,236.22L327.016,235.954L513.572,117.237L560.429,117.237L562.587,118.61L377.771,236.22L623.979,236.22L623.979,425.197L327.016,425.197L327.016,402.17L587.794,402.17L587.794,259.247L327.016,259.247L327.016,236.22L327.435,236.22ZM1523.81,236.22L1523.81,425.197L1277.602,425.197L1462.341,542.758L1411.167,542.758L1226.847,425.463L1227.265,425.197L1226.847,425.197L1226.847,402.17L1487.625,402.17L1487.625,259.247L1226.847,259.247L1226.847,236.22L1523.81,236.22ZM174.064,259.247L-122.899,259.247L-122.899,236.22L174.064,236.22L174.064,259.247ZM174.064,425.197L-122.899,425.197L-122.899,402.17L174.064,402.17L174.064,425.197ZM174.064,342.222L-122.899,342.222L-122.899,319.195L174.064,319.195L174.064,342.222ZM-600.594,117.237L-600.594,425.197L-636.779,425.197L-636.779,117.237L-600.594,117.237ZM-275.851,117.237L-275.851,425.197L-312.036,425.197L-312.036,117.237L-275.851,117.237ZM-438.223,319.195L-438.223,425.197L-474.408,425.197L-474.408,319.195L-438.223,319.195ZM1073.894,259.247L776.931,259.247L776.931,236.22L1073.894,236.22L1073.894,259.247ZM1073.894,425.197L776.931,425.197L776.931,402.17L1073.894,402.17L1073.894,425.197ZM1073.894,342.222L776.931,342.222L776.931,319.195L1073.894,319.195L1073.894,342.222ZM1799.093,422.927L1769.512,422.927L1769.512,370.232L1799.093,370.232C1806.489,370.232 1812.941,370.927 1818.45,372.317C1823.96,373.708 1828.554,375.603 1832.233,378.004C1835.912,380.405 1838.667,383.132 1840.497,386.186C1842.327,389.241 1843.242,392.42 1843.242,395.723L1843.242,397.292C1843.242,400.406 1842.327,403.49 1840.497,406.544C1838.667,409.598 1835.912,412.356 1832.233,414.816C1828.554,417.276 1823.96,419.243 1818.45,420.716C1812.941,422.19 1806.489,422.927 1799.093,422.927ZM1785.423,379.644L1785.423,413.514L1800.102,413.514C1804.323,413.514 1808.095,413.098 1811.419,412.266C1814.743,411.435 1817.573,410.264 1819.907,408.755C1822.242,407.245 1824.025,405.451 1825.258,403.371C1826.49,401.291 1827.106,399.004 1827.106,396.508C1827.106,393.893 1826.49,391.552 1825.258,389.484C1824.025,387.416 1822.242,385.646 1819.907,384.172C1817.573,382.698 1814.743,381.575 1811.419,380.803C1808.095,380.03 1804.323,379.644 1800.102,379.644L1785.423,379.644ZM2132,422.641L2081.577,422.641L2081.577,370.588L2131.104,370.588L2131.104,379.145L2097.152,379.145L2097.152,391.909L2129.087,391.909L2129.087,400.465L2097.152,400.465L2097.152,414.085L2132,414.085L2132,422.641ZM2399.637,423.996C2392.428,423.996 2386.33,423.259 2381.344,421.786C2376.358,420.312 2372.567,418.286 2369.971,415.707C2367.375,413.128 2366.077,410.187 2366.077,406.883L2381.652,406.883C2381.652,408.285 2382.25,409.634 2383.445,410.929C2384.64,412.225 2386.555,413.277 2389.188,414.085C2391.821,414.893 2395.304,415.297 2399.637,415.297C2403.558,415.297 2406.817,414.946 2409.413,414.245C2412.009,413.544 2413.951,412.605 2415.24,411.429C2416.529,410.252 2417.173,408.927 2417.173,407.453C2417.173,405.623 2415.94,404.149 2413.475,403.032C2411.01,401.915 2407.181,401.214 2401.99,400.929L2394.818,400.537C2386.975,400.109 2380.719,398.552 2376.05,395.866C2371.381,393.18 2369.046,389.627 2369.046,385.206C2369.046,381.902 2370.279,379.05 2372.744,376.649C2375.209,374.248 2378.664,372.389 2383.109,371.069C2387.554,369.75 2392.764,369.091 2398.74,369.091C2404.94,369.091 2410.291,369.78 2414.792,371.159C2419.292,372.537 2422.766,374.474 2425.213,376.97C2427.659,379.466 2428.882,382.401 2428.882,385.776L2413.307,385.776C2413.307,384.374 2412.775,383.067 2411.71,381.854C2410.646,380.642 2409.04,379.662 2406.892,378.913C2404.744,378.164 2402.027,377.79 2398.74,377.79C2395.603,377.79 2392.988,378.129 2390.897,378.806C2388.805,379.484 2387.236,380.387 2386.19,381.516C2385.145,382.645 2384.622,383.875 2384.622,385.206C2384.622,386.822 2385.555,388.236 2387.423,389.449C2389.291,390.661 2392.241,391.374 2396.275,391.588L2403.446,391.98C2409.31,392.289 2414.437,393.085 2418.826,394.369C2423.214,395.652 2426.632,397.381 2429.078,399.556C2431.525,401.731 2432.748,404.363 2432.748,407.453C2432.748,410.733 2431.394,413.621 2428.686,416.117C2425.978,418.613 2422.15,420.55 2417.201,421.928C2412.252,423.307 2406.397,423.996 2399.637,423.996ZM2671.643,422.641L2671.643,370.588L2687.554,370.588L2687.554,422.641L2671.643,422.641ZM3005.334,403.745L3005.334,413.3C3001.786,416.699 2996.996,419.332 2990.964,421.197C2984.931,423.063 2977.975,423.996 2970.094,423.996C2963.072,423.996 2956.89,423.253 2951.549,421.768C2946.208,420.282 2941.735,418.268 2938.131,415.725C2934.527,413.182 2931.809,410.3 2929.979,407.079C2928.149,403.858 2927.234,400.525 2927.234,397.078L2927.234,395.51C2927.234,392.229 2928.121,389.021 2929.895,385.883C2931.669,382.746 2934.293,379.911 2937.767,377.38C2941.24,374.849 2945.536,372.834 2950.653,371.337C2955.77,369.839 2961.653,369.091 2968.301,369.091C2975.472,369.091 2981.831,369.94 2987.378,371.64C2992.924,373.339 2997.379,375.698 3000.74,378.717C3004.102,381.736 3006.063,385.23 3006.623,389.199L2990.599,389.199C2990.114,386.965 2988.825,385.051 2986.734,383.459C2984.642,381.866 2982.009,380.642 2978.834,379.787C2975.659,378.931 2972.148,378.503 2968.301,378.503C2964.491,378.503 2961.046,378.931 2957.964,379.787C2954.883,380.642 2952.259,381.86 2950.093,383.441C2947.926,385.022 2946.264,386.905 2945.106,389.092C2943.948,391.279 2943.369,393.703 2943.369,396.365C2943.369,399.241 2943.995,401.82 2945.246,404.102C2946.498,406.384 2948.281,408.321 2950.597,409.913C2952.913,411.506 2955.723,412.718 2959.029,413.55C2962.334,414.382 2966.023,414.798 2970.094,414.798C2975.584,414.798 2980.375,414.079 2984.465,412.641C2986.923,411.776 2988.986,410.751 2990.655,409.565L2990.655,403.745L2967.517,403.745L2967.517,396.187L3012.169,396.187L3012.169,403.745L3005.334,403.745ZM3264.175,379.002L3264.175,422.641L3249.384,422.641L3249.384,370.588L3275.436,370.588L3309.836,414.227L3311.348,414.227L3311.348,370.588L3326.363,370.588L3326.363,422.641L3300.087,422.641L3265.687,379.002L3264.175,379.002ZM3621.06,422.641L3570.637,422.641L3570.637,370.588L3620.164,370.588L3620.164,379.145L3586.212,379.145L3586.212,391.909L3618.147,391.909L3618.147,400.465L3586.212,400.465L3586.212,414.085L3621.06,414.085L3621.06,422.641ZM3877.436,405.243L3877.436,422.641L3861.524,422.641L3861.524,370.232L3891.89,370.232C3898.427,370.232 3904.104,370.856 3908.922,372.103C3913.741,373.351 3917.457,375.229 3920.071,377.737C3922.686,380.244 3923.993,383.411 3923.993,387.238L3923.993,388.379C3923.993,392.206 3922.667,395.361 3920.015,397.845C3917.364,400.329 3913.647,402.183 3908.866,403.407C3908.659,403.46 3908.45,403.512 3908.24,403.562L3930.1,422.641L3911.443,422.641L3892.197,405.242L3891.89,405.243L3877.436,405.243ZM3877.436,378.86L3877.436,397.043L3893.515,397.043C3896.466,397.043 3899.006,396.662 3901.135,395.902C3903.264,395.141 3904.916,394.077 3906.093,392.711C3907.27,391.344 3907.858,389.769 3907.858,387.987C3907.858,386.18 3907.27,384.594 3906.093,383.227C3904.916,381.86 3903.264,380.791 3901.135,380.018C3899.006,379.246 3896.466,378.86 3893.515,378.86L3877.436,378.86Z" style="fill:white;"/>
            </g>
            <g transform="matrix(0.454405,0,0,4.073025,4941.413205,-263.164868)">
                <path d="M327.435,236.22L327.016,235.954L513.572,117.237L560.429,117.237L562.587,118.61L377.771,236.22L623.979,236.22L623.979,425.197L327.016,425.197L327.016,402.17L587.794,402.17L587.794,259.247L327.016,259.247L327.016,236.22L327.435,236.22ZM1523.81,236.22L1523.81,425.197L1277.602,425.197L1462.341,542.758L1411.167,542.758L1226.847,425.463L1227.265,425.197L1226.847,425.197L1226.847,402.17L1487.625,402.17L1487.625,259.247L1226.847,259.247L1226.847,236.22L1523.81,236.22ZM174.064,259.247L-122.899,259.247L-122.899,236.22L174.064,236.22L174.064,259.247ZM174.064,425.197L-122.899,425.197L-122.899,402.17L174.064,402.17L174.064,425.197ZM174.064,342.222L-122.899,342.222L-122.899,319.195L174.064,319.195L174.064,342.222ZM-600.594,117.237L-600.594,425.197L-636.779,425.197L-636.779,117.237L-600.594,117.237ZM-275.851,117.237L-275.851,425.197L-312.036,425.197L-312.036,117.237L-275.851,117.237ZM-438.223,319.195L-438.223,425.197L-474.408,425.197L-474.408,319.195L-438.223,319.195ZM1073.894,259.247L776.931,259.247L776.931,236.22L1073.894,236.22L1073.894,259.247ZM1073.894,425.197L776.931,425.197L776.931,402.17L1073.894,402.17L1073.894,425.197ZM1073.894,342.222L776.931,342.222L776.931,319.195L1073.894,319.195L1073.894,342.222ZM1799.093,422.927L1769.512,422.927L1769.512,370.232L1799.093,370.232C1806.489,370.232 1812.941,370.927 1818.45,372.317C1823.96,373.708 1828.554,375.603 1832.233,378.004C1835.912,380.405 1838.667,383.132 1840.497,386.186C1842.327,389.241 1843.242,392.42 1843.242,395.723L1843.242,397.292C1843.242,400.406 1842.327,403.49 1840.497,406.544C1838.667,409.598 1835.912,412.356 1832.233,414.816C1828.554,417.276 1823.96,419.243 1818.45,420.716C1812.941,422.19 1806.489,422.927 1799.093,422.927ZM1785.423,379.644L1785.423,413.514L1800.102,413.514C1804.323,413.514 1808.095,413.098 1811.419,412.266C1814.743,411.435 1817.573,410.264 1819.907,408.755C1822.242,407.245 1824.025,405.451 1825.258,403.371C1826.49,401.291 1827.106,399.004 1827.106,396.508C1827.106,393.893 1826.49,391.552 1825.258,389.484C1824.025,387.416 1822.242,385.646 1819.907,384.172C1817.573,382.698 1814.743,381.575 1811.419,380.803C1808.095,380.03 1804.323,379.644 1800.102,379.644L1785.423,379.644ZM2132,422.641L2081.577,422.641L2081.577,370.588L2131.104,370.588L2131.104,379.145L2097.152,379.145L2097.152,391.909L2129.087,391.909L2129.087,400.465L2097.152,400.465L2097.152,414.085L2132,414.085L2132,422.641ZM2399.637,423.996C2392.428,423.996 2386.33,423.259 2381.344,421.786C2376.358,420.312 2372.567,418.286 2369.971,415.707C2367.375,413.128 2366.077,410.187 2366.077,406.883L2381.652,406.883C2381.652,408.285 2382.25,409.634 2383.445,410.929C2384.64,412.225 2386.555,413.277 2389.188,414.085C2391.821,414.893 2395.304,415.297 2399.637,415.297C2403.558,415.297 2406.817,414.946 2409.413,414.245C2412.009,413.544 2413.951,412.605 2415.24,411.429C2416.529,410.252 2417.173,408.927 2417.173,407.453C2417.173,405.623 2415.94,404.149 2413.475,403.032C2411.01,401.915 2407.181,401.214 2401.99,400.929L2394.818,400.537C2386.975,400.109 2380.719,398.552 2376.05,395.866C2371.381,393.18 2369.046,389.627 2369.046,385.206C2369.046,381.902 2370.279,379.05 2372.744,376.649C2375.209,374.248 2378.664,372.389 2383.109,371.069C2387.554,369.75 2392.764,369.091 2398.74,369.091C2404.94,369.091 2410.291,369.78 2414.792,371.159C2419.292,372.537 2422.766,374.474 2425.213,376.97C2427.659,379.466 2428.882,382.401 2428.882,385.776L2413.307,385.776C2413.307,384.374 2412.775,383.067 2411.71,381.854C2410.646,380.642 2409.04,379.662 2406.892,378.913C2404.744,378.164 2402.027,377.79 2398.74,377.79C2395.603,377.79 2392.988,378.129 2390.897,378.806C2388.805,379.484 2387.236,380.387 2386.19,381.516C2385.145,382.645 2384.622,383.875 2384.622,385.206C2384.622,386.822 2385.555,388.236 2387.423,389.449C2389.291,390.661 2392.241,391.374 2396.275,391.588L2403.446,391.98C2409.31,392.289 2414.437,393.085 2418.826,394.369C2423.214,395.652 2426.632,397.381 2429.078,399.556C2431.525,401.731 2432.748,404.363 2432.748,407.453C2432.748,410.733 2431.394,413.621 2428.686,416.117C2425.978,418.613 2422.15,420.55 2417.201,421.928C2412.252,423.307 2406.397,423.996 2399.637,423.996ZM2671.643,422.641L2671.643,370.588L2687.554,370.588L2687.554,422.641L2671.643,422.641ZM3005.334,403.745L3005.334,413.3C3001.786,416.699 2996.996,419.332 2990.964,421.197C2984.931,423.063 2977.975,423.996 2970.094,423.996C2963.072,423.996 2956.89,423.253 2951.549,421.768C2946.208,420.282 2941.735,418.268 2938.131,415.725C2934.527,413.182 2931.809,410.3 2929.979,407.079C2928.149,403.858 2927.234,400.525 2927.234,397.078L2927.234,395.51C2927.234,392.229 2928.121,389.021 2929.895,385.883C2931.669,382.746 2934.293,379.911 2937.767,377.38C2941.24,374.849 2945.536,372.834 2950.653,371.337C2955.77,369.839 2961.653,369.091 2968.301,369.091C2975.472,369.091 2981.831,369.94 2987.378,371.64C2992.924,373.339 2997.379,375.698 3000.74,378.717C3004.102,381.736 3006.063,385.23 3006.623,389.199L2990.599,389.199C2990.114,386.965 2988.825,385.051 2986.734,383.459C2984.642,381.866 2982.009,380.642 2978.834,379.787C2975.659,378.931 2972.148,378.503 2968.301,378.503C2964.491,378.503 2961.046,378.931 2957.964,379.787C2954.883,380.642 2952.259,381.86 2950.093,383.441C2947.926,385.022 2946.264,386.905 2945.106,389.092C2943.948,391.279 2943.369,393.703 2943.369,396.365C2943.369,399.241 2943.995,401.82 2945.246,404.102C2946.498,406.384 2948.281,408.321 2950.597,409.913C2952.913,411.506 2955.723,412.718 2959.029,413.55C2962.334,414.382 2966.023,414.798 2970.094,414.798C2975.584,414.798 2980.375,414.079 2984.465,412.641C2986.923,411.776 2988.986,410.751 2990.655,409.565L2990.655,403.745L2967.517,403.745L2967.517,396.187L3012.169,396.187L3012.169,403.745L3005.334,403.745ZM3264.175,379.002L3264.175,422.641L3249.384,422.641L3249.384,370.588L3275.436,370.588L3309.836,414.227L3311.348,414.227L3311.348,370.588L3326.363,370.588L3326.363,422.641L3300.087,422.641L3265.687,379.002L3264.175,379.002ZM3621.06,422.641L3570.637,422.641L3570.637,370.588L3620.164,370.588L3620.164,379.145L3586.212,379.145L3586.212,391.909L3618.147,391.909L3618.147,400.465L3586.212,400.465L3586.212,414.085L3621.06,414.085L3621.06,422.641ZM3877.436,405.243L3877.436,422.641L3861.524,422.641L3861.524,370.232L3891.89,370.232C3898.427,370.232 3904.104,370.856 3908.922,372.103C3913.741,373.351 3917.457,375.229 3920.071,377.737C3922.686,380.244 3923.993,383.411 3923.993,387.238L3923.993,388.379C3923.993,392.206 3922.667,395.361 3920.015,397.845C3917.364,400.329 3913.647,402.183 3908.866,403.407C3908.659,403.46 3908.45,403.512 3908.24,403.562L3930.1,422.641L3911.443,422.641L3892.197,405.242L3891.89,405.243L3877.436,405.243ZM3877.436,378.86L3877.436,397.043L3893.515,397.043C3896.466,397.043 3899.006,396.662 3901.135,395.902C3903.264,395.141 3904.916,394.077 3906.093,392.711C3907.27,391.344 3907.858,389.769 3907.858,387.987C3907.858,386.18 3907.27,384.594 3906.093,383.227C3904.916,381.86 3903.264,380.791 3901.135,380.018C3899.006,379.246 3896.466,378.86 3893.515,378.86L3877.436,378.86Z" style="fill:white;"/>
            </g>
        </g>
    </g>
</svg>
