<?xml version="1.0" encoding="UTF-8" standalone="no"?>
<!DOCTYPE svg PUBLIC "-//W3C//DTD SVG 1.1//EN" "http://www.w3.org/Graphics/SVG/1.1/DTD/svg11.dtd">
<svg width="100%" height="100%" viewBox="0 0 1080 501" version="1.1" xmlns="http://www.w3.org/2000/svg" xmlns:xlink="http://www.w3.org/1999/xlink" xml:space="preserve" xmlns:serif="http://www.serif.com/" style="fill-rule:evenodd;clip-rule:evenodd;stroke-linejoin:round;stroke-miterlimit:2;">
    <g transform="matrix(1,0,0,1,-15,-688)">
        <g id="lg-vt-color" transform="matrix(0.495576,0,0,0.231284,-2264.661974,688.793865)">
            <rect x="4600.023" y="0" width="2179.282" height="2161.846" style="fill:none;"/>
            <g transform="matrix(0.967715,0,0,3.25842,5260.468021,-155.401977)">
                <path d="M327.435,236.22L327.016,235.954L513.572,117.237L560.429,117.237L562.587,118.61L377.771,236.22L623.979,236.22L623.979,425.197L327.016,425.197L327.016,402.17L587.794,402.17L587.794,259.247L327.016,259.247L327.016,236.22L327.435,236.22ZM1523.81,236.22L1523.81,425.197L1277.602,425.197L1462.341,542.758L1411.167,542.758L1226.847,425.463L1227.265,425.197L1226.847,425.197L1226.847,402.17L1487.625,402.17L1487.625,259.247L1226.847,259.247L1226.847,236.22L1523.81,236.22ZM174.064,259.247L-122.899,259.247L-122.899,236.22L174.064,236.22L174.064,259.247ZM174.064,425.197L-122.899,425.197L-122.899,402.17L174.064,402.17L174.064,425.197ZM174.064,342.222L-122.899,342.222L-122.899,319.195L174.064,319.195L174.064,342.222ZM-600.594,117.237L-600.594,425.197L-636.779,425.197L-636.779,117.237L-600.594,117.237ZM-275.851,117.237L-275.851,425.197L-312.036,425.197L-312.036,117.237L-275.851,117.237ZM-438.223,319.195L-438.223,425.197L-474.408,425.197L-474.408,319.195L-438.223,319.195ZM1073.894,259.247L776.931,259.247L776.931,236.22L1073.894,236.22L1073.894,259.247ZM1073.894,425.197L776.931,425.197L776.931,402.17L1073.894,402.17L1073.894,425.197ZM1073.894,342.222L776.931,342.222L776.931,319.195L1073.894,319.195L1073.894,342.222ZM-607.197,640.543L-636.779,640.543L-636.779,587.848L-607.197,587.848C-599.802,587.848 -593.349,588.543 -587.84,589.934C-582.331,591.324 -577.737,593.22 -574.058,595.62C-570.379,598.021 -567.624,600.748 -565.794,603.803C-563.964,606.857 -563.049,610.036 -563.049,613.34L-563.049,614.909C-563.049,618.022 -563.964,621.106 -565.794,624.16C-567.624,627.215 -570.379,629.972 -574.058,632.432C-577.737,634.892 -582.331,636.859 -587.84,638.332C-593.349,639.806 -599.802,640.543 -607.197,640.543ZM-620.868,597.26L-620.868,631.131L-606.189,631.131C-601.968,631.131 -598.196,630.715 -594.871,629.883C-591.547,629.051 -588.718,627.88 -586.384,626.371C-584.049,624.862 -582.266,623.067 -581.033,620.987C-579.8,618.908 -579.184,616.62 -579.184,614.124C-579.184,611.51 -579.8,609.168 -581.033,607.101C-582.266,605.033 -584.049,603.262 -586.384,601.788C-588.718,600.315 -591.547,599.192 -594.871,598.419C-598.196,597.647 -601.968,597.26 -606.189,597.26L-620.868,597.26ZM-274.29,640.258L-324.714,640.258L-324.714,588.204L-275.187,588.204L-275.187,596.761L-309.139,596.761L-309.139,609.525L-277.204,609.525L-277.204,618.082L-309.139,618.082L-309.139,631.701L-274.29,631.701L-274.29,640.258ZM-6.654,641.613C-13.863,641.613 -19.96,640.876 -24.947,639.402C-29.933,637.928 -33.724,635.902 -36.32,633.323C-38.916,630.744 -40.214,627.803 -40.214,624.499L-24.638,624.499C-24.638,625.901 -24.041,627.25 -22.846,628.546C-21.65,629.841 -19.736,630.893 -17.103,631.701C-14.47,632.509 -10.987,632.913 -6.654,632.913C-2.732,632.913 0.527,632.563 3.123,631.861C5.718,631.16 7.661,630.221 8.949,629.045C10.238,627.868 10.882,626.543 10.882,625.07C10.882,623.239 9.65,621.766 7.184,620.649C4.719,619.532 0.891,618.83 -4.301,618.545L-11.472,618.153C-19.316,617.725 -25.572,616.168 -30.241,613.482C-34.91,610.797 -37.244,607.243 -37.244,602.822C-37.244,599.518 -36.012,596.666 -33.547,594.265C-31.081,591.865 -27.626,590.005 -23.182,588.686C-18.737,587.367 -13.527,586.707 -7.55,586.707C-1.35,586.707 4,587.396 8.501,588.775C13.002,590.153 16.475,592.091 18.922,594.586C21.368,597.082 22.592,600.017 22.592,603.393L7.016,603.393C7.016,601.99 6.484,600.683 5.42,599.471C4.355,598.259 2.749,597.278 0.601,596.529C-1.546,595.781 -4.264,595.406 -7.55,595.406C-10.688,595.406 -13.302,595.745 -15.394,596.422C-17.486,597.1 -19.054,598.003 -20.1,599.132C-21.146,600.261 -21.669,601.491 -21.669,602.822C-21.669,604.438 -20.735,605.853 -18.868,607.065C-17,608.277 -14.049,608.99 -10.016,609.204L-2.844,609.596C3.02,609.905 8.146,610.701 12.535,611.985C16.924,613.268 20.341,614.998 22.788,617.172C25.234,619.347 26.457,621.98 26.457,625.07C26.457,628.35 25.103,631.238 22.396,633.733C19.688,636.229 15.859,638.166 10.91,639.545C5.961,640.923 0.106,641.613 -6.654,641.613ZM265.352,640.258L265.352,588.204L281.264,588.204L281.264,640.258L265.352,640.258ZM599.044,621.362L599.044,630.917C595.495,634.316 590.705,636.948 584.673,638.814C578.641,640.68 571.684,641.613 563.803,641.613C556.781,641.613 550.6,640.87 545.259,639.384C539.917,637.899 535.445,635.884 531.84,633.341C528.236,630.798 525.519,627.916 523.689,624.695C521.858,621.475 520.943,618.141 520.943,614.695L520.943,613.126C520.943,609.846 521.83,606.637 523.605,603.5C525.379,600.362 528.003,597.528 531.476,594.996C534.95,592.465 539.245,590.451 544.362,588.953C549.479,587.456 555.362,586.707 562.01,586.707C569.182,586.707 575.541,587.557 581.087,589.256C586.634,590.956 591.088,593.315 594.449,596.333C597.811,599.352 599.772,602.846 600.332,606.815L584.309,606.815C583.823,604.581 582.535,602.668 580.443,601.075C578.351,599.483 575.718,598.259 572.543,597.403C569.368,596.547 565.857,596.119 562.01,596.119C558.201,596.119 554.755,596.547 551.674,597.403C548.592,598.259 545.968,599.477 543.802,601.057C541.636,602.638 539.973,604.522 538.816,606.708C537.658,608.895 537.079,611.319 537.079,613.982C537.079,616.858 537.704,619.436 538.956,621.718C540.207,624 541.99,625.937 544.306,627.53C546.622,629.122 549.433,630.334 552.738,631.166C556.044,631.998 559.732,632.414 563.803,632.414C569.294,632.414 574.084,631.695 578.174,630.257C580.632,629.393 582.696,628.367 584.365,627.181L584.365,621.362L561.226,621.362L561.226,613.803L605.879,613.803L605.879,621.362L599.044,621.362ZM857.884,596.619L857.884,640.258L843.093,640.258L843.093,588.204L869.145,588.204L903.545,631.844L905.058,631.844L905.058,588.204L920.073,588.204L920.073,640.258L893.797,640.258L859.397,596.619L857.884,596.619ZM1214.77,640.258L1164.346,640.258L1164.346,588.204L1213.873,588.204L1213.873,596.761L1179.922,596.761L1179.922,609.525L1211.856,609.525L1211.856,618.082L1179.922,618.082L1179.922,631.701L1214.77,631.701L1214.77,640.258ZM1471.145,622.859L1471.145,640.258L1455.234,640.258L1455.234,587.848L1485.6,587.848C1492.136,587.848 1497.813,588.472 1502.632,589.72C1507.45,590.968 1511.166,592.845 1513.781,595.353C1516.395,597.86 1517.703,601.028 1517.703,604.854L1517.703,605.995C1517.703,609.822 1516.377,612.977 1513.725,615.461C1511.073,617.945 1507.357,619.799 1502.576,621.023C1502.368,621.076 1502.16,621.128 1501.949,621.179L1523.81,640.258L1505.153,640.258L1485.906,622.859L1485.6,622.859L1471.145,622.859ZM1471.145,596.476L1471.145,614.659L1487.224,614.659C1490.175,614.659 1492.715,614.279 1494.844,613.518C1496.973,612.757 1498.626,611.694 1499.802,610.327C1500.979,608.96 1501.567,607.386 1501.567,605.603C1501.567,603.797 1500.979,602.21 1499.802,600.843C1498.626,599.477 1496.973,598.407 1494.844,597.635C1492.715,596.862 1490.175,596.476 1487.224,596.476L1471.145,596.476Z" style="fill:rgb(30,30,30);"/>
            </g>
        </g>
    </g>
</svg>
