<?xml version="1.0" encoding="UTF-8" standalone="no"?>
<!DOCTYPE svg PUBLIC "-//W3C//DTD SVG 1.1//EN" "http://www.w3.org/Graphics/SVG/1.1/DTD/svg11.dtd">
<svg width="100%" height="100%" viewBox="0 0 621 1081" version="1.1" xmlns="http://www.w3.org/2000/svg" xmlns:xlink="http://www.w3.org/1999/xlink" xml:space="preserve" xmlns:serif="http://www.serif.com/" style="fill-rule:evenodd;clip-rule:evenodd;stroke-linejoin:round;stroke-miterlimit:2;">
    <g transform="matrix(1,0,0,1,-1571,-500)">
        <g id="lg-vt-cmyk-color-inverted" transform="matrix(0.284497,0,0,0.499573,262.997196,500.262938)">
            <rect x="4600.023" y="0" width="2179.282" height="2161.846" style="fill:none;"/>
            <g id="logo" transform="matrix(17.55267,0,0,9.995913,-137281.807009,-8806.682394)">
                <g id="simbolo">
                    <g transform="matrix(1.513096,0,0,2.295411,-6667.062223,-1893.206338)">
                        <path d="M9769.683,1233.051C9769.754,1232.939 9769.945,1232.884 9770.118,1232.925C9774.348,1233.939 9820.184,1244.944 9823.129,1245.651C9823.218,1245.672 9823.277,1245.728 9823.277,1245.791L9823.277,1275.599C9823.277,1277.2 9821.395,1278.497 9819.073,1278.497L9759.779,1278.497C9757.457,1278.497 9755.575,1277.2 9755.575,1275.599L9755.575,1215.786C9755.575,1214.185 9757.457,1212.887 9759.779,1212.887L9819.073,1212.887C9821.395,1212.887 9823.277,1214.185 9823.277,1215.786L9823.277,1217.383C9823.277,1217.446 9823.218,1217.502 9823.129,1217.523L9770.119,1230.25C9769.945,1230.292 9769.753,1230.236 9769.682,1230.124C9768.826,1228.831 9766.869,1227.927 9764.593,1227.927C9761.529,1227.927 9759.041,1229.567 9759.041,1231.587C9759.041,1233.607 9761.529,1235.247 9764.593,1235.247C9766.869,1235.247 9768.826,1234.343 9769.683,1233.051ZM9770.097,1231.1C9770.08,1231.015 9770.168,1230.935 9770.297,1230.92L9823.012,1224.801C9823.078,1224.794 9823.146,1224.806 9823.197,1224.834C9823.248,1224.862 9823.277,1224.904 9823.277,1224.948L9823.277,1228.02C9823.277,1228.097 9823.188,1228.161 9823.072,1228.168L9770.368,1231.247C9770.235,1231.255 9770.116,1231.192 9770.098,1231.104L9770.097,1231.1ZM9770.098,1232.066C9770.115,1231.981 9770.232,1231.919 9770.362,1231.927L9823.072,1235.006C9823.188,1235.013 9823.277,1235.077 9823.277,1235.154L9823.277,1238.226C9823.277,1238.27 9823.248,1238.312 9823.197,1238.34C9823.146,1238.368 9823.078,1238.38 9823.012,1238.373L9770.302,1232.255C9770.17,1232.239 9770.08,1232.158 9770.098,1232.07L9770.098,1232.066Z" style="fill:rgb(0,134,205);"/>
                    </g>
                    <g transform="matrix(0.240447,0,0,0.233052,5808.652541,667.48453)">
                        <path d="M9580.436,1173.052L9720.906,1402.343C9721.727,1403.731 9721.473,1405.293 9720.058,1406.191L9568.047,1509.172C9566.957,1509.864 9565.577,1509.908 9564.444,1509.288C9563.312,1508.667 9562.607,1507.479 9562.605,1506.188L9561.914,1178.742C9568.73,1178.679 9575.082,1176.599 9580.436,1173.052Z" style="fill:rgb(0,73,154);"/>
                    </g>
                    <g transform="matrix(0.295426,0,0,0.298622,5281.442042,567.549623)">
                        <path d="M9817.834,1383.799C9818.926,1383.106 9820.308,1383.062 9821.44,1383.685C9822.573,1384.307 9823.277,1385.497 9823.277,1386.79L9823.277,1542.294C9823.277,1544.248 9821.695,1545.833 9819.741,1545.838L9574.014,1546.367C9572.437,1546.371 9571.047,1545.331 9570.605,1543.817C9570.163,1542.302 9570.775,1540.678 9572.107,1539.833L9817.834,1383.799Z" style="fill:rgb(14,6,47);"/>
                    </g>
                    <g transform="matrix(0.487077,0,0,0.413009,7416.034789,866.516587)">
                        <path d="M1602.352,83.949L1602.352,125.992C1602.352,125.747 1602.26,125.516 1602.102,125.359C1601.943,125.202 1601.734,125.135 1601.53,125.178L1437.769,159.185C1437.369,159.268 1437.095,159.709 1437.148,160.185L1437.152,160.208C1437.207,160.694 1437.576,161.044 1437.991,161.002L1601.713,143.889C1602.075,143.852 1602.352,143.494 1602.352,143.066L1602.352,182.715C1602.352,182.287 1602.075,181.93 1601.713,181.892L1437.973,164.778C1437.568,164.735 1437.206,165.077 1437.153,165.553L1437.152,165.577C1437.097,166.063 1437.377,166.514 1437.787,166.6L1601.53,200.603C1601.734,200.646 1601.943,200.579 1602.102,200.422C1602.26,200.265 1602.352,200.034 1602.352,199.79L1602.352,241.832C1602.352,241.485 1602.168,241.174 1601.891,241.056C1592.744,237.126 1450.354,175.963 1437.213,170.328C1436.678,170.098 1436.083,170.405 1435.864,171.025C1433.2,178.208 1427.12,183.232 1420.052,183.232C1410.532,183.232 1402.803,174.117 1402.803,162.891C1402.803,151.664 1410.532,142.549 1420.052,142.549C1427.12,142.549 1433.2,147.574 1435.858,154.759C1436.079,155.383 1436.677,155.692 1437.216,155.462L1601.891,84.726C1602.168,84.607 1602.352,84.297 1602.352,83.949Z" style="fill:white;"/>
                    </g>
                </g>
                <g transform="matrix(0.298174,0,0,0.298174,5098.917614,799.220084)">
                    <g id="lazaro-Ferraz" serif:id="lazaro Ferraz">
                        <g transform="matrix(1.30964,0,0,1.30964,7634.524712,-330.159223)">
                            <path d="M1841.878,938.408C1841.136,938.408 1840.535,937.807 1840.535,937.065L1840.535,893.035C1840.535,892.294 1841.136,891.692 1841.878,891.692L1850.871,891.692C1851.612,891.692 1852.214,892.294 1852.214,893.035L1852.214,928.07C1852.214,928.812 1852.815,929.413 1853.557,929.413L1872.923,929.413C1873.279,929.413 1873.621,929.554 1873.872,929.806C1874.124,930.058 1874.266,930.4 1874.266,930.756L1874.266,937.065C1874.266,937.807 1873.664,938.408 1872.923,938.408L1841.878,938.408ZM1897.078,887.136C1896.639,887.136 1896.228,886.922 1895.977,886.562C1895.726,886.203 1895.666,885.744 1895.816,885.332L1896.226,884.209C1896.375,883.803 1896.71,883.493 1897.126,883.376L1905.723,880.974C1906.175,880.847 1906.661,880.966 1907.004,881.288C1907.346,881.609 1907.496,882.086 1907.399,882.545L1906.652,886.071C1906.521,886.692 1905.973,887.136 1905.338,887.136L1897.078,887.136ZM1877.812,938.408C1877.37,938.408 1876.957,938.191 1876.706,937.827C1876.456,937.462 1876.4,936.998 1876.558,936.586L1893.376,892.556C1893.575,892.036 1894.074,891.692 1894.631,891.692L1905.404,891.692C1905.961,891.692 1906.46,892.036 1906.658,892.556L1923.477,936.586C1923.635,936.998 1923.579,937.462 1923.329,937.827C1923.078,938.191 1922.664,938.408 1922.222,938.408L1912.898,938.408C1912.348,938.408 1911.853,938.072 1911.65,937.561L1908.116,928.664C1907.913,928.153 1907.418,927.817 1906.868,927.817L1893.101,927.817C1892.547,927.817 1892.051,928.156 1891.849,928.672L1888.382,937.553C1888.181,938.069 1887.684,938.408 1887.131,938.408L1877.812,938.408ZM1894.469,917.365C1894.313,917.778 1894.369,918.241 1894.62,918.605C1894.87,918.968 1895.284,919.185 1895.725,919.185L1904.229,919.185C1904.671,919.185 1905.085,918.967 1905.336,918.603C1905.586,918.238 1905.641,917.773 1905.483,917.36L1901.206,906.221C1901.006,905.701 1900.507,905.358 1899.95,905.359C1899.393,905.36 1898.894,905.705 1898.697,906.226L1894.469,917.365ZM1927.02,938.408C1926.664,938.408 1926.322,938.266 1926.07,938.015C1925.818,937.763 1925.677,937.421 1925.677,937.065L1925.677,932.881C1925.677,932.607 1925.761,932.339 1925.917,932.114L1946.115,903.088C1946.401,902.677 1946.435,902.142 1946.203,901.699C1945.972,901.255 1945.513,900.977 1945.013,900.977L1928.108,900.977C1927.752,900.977 1927.41,900.836 1927.158,900.584C1926.906,900.332 1926.765,899.991 1926.765,899.634L1926.765,893.035C1926.765,892.679 1926.906,892.338 1927.158,892.086C1927.41,891.834 1927.752,891.692 1928.108,891.692L1961.547,891.692C1961.903,891.692 1962.245,891.834 1962.496,892.086C1962.748,892.338 1962.89,892.679 1962.89,893.035L1962.89,897.8C1962.89,898.074 1962.806,898.342 1962.649,898.567L1942.667,927.303C1942.382,927.714 1942.348,928.249 1942.58,928.692C1942.811,929.135 1943.27,929.413 1943.77,929.413L1961.982,929.413C1962.724,929.413 1963.325,930.014 1963.325,930.756L1963.325,937.065C1963.325,937.421 1963.183,937.763 1962.932,938.015C1962.68,938.266 1962.338,938.408 1961.982,938.408L1927.02,938.408ZM1966.746,938.408C1966.304,938.408 1965.891,938.191 1965.64,937.827C1965.389,937.462 1965.334,936.998 1965.492,936.586L1982.31,892.556C1982.509,892.036 1983.008,891.692 1983.565,891.692L1994.338,891.692C1994.894,891.692 1995.393,892.036 1995.592,892.556L2012.411,936.586C2012.569,936.998 2012.513,937.462 2012.262,937.827C2012.012,938.191 2011.598,938.408 2011.156,938.408L2001.832,938.408C2001.282,938.408 2000.787,938.072 2000.584,937.561L1997.05,928.664C1996.846,928.153 1996.352,927.817 1995.801,927.817L1982.034,927.817C1981.481,927.817 1980.984,928.156 1980.783,928.672L1977.316,937.553C1977.115,938.069 1976.618,938.408 1976.065,938.408L1966.746,938.408ZM1983.403,917.365C1983.247,917.778 1983.303,918.241 1983.554,918.605C1983.804,918.968 1984.218,919.185 1984.659,919.185L1993.163,919.185C1993.605,919.185 1994.019,918.967 1994.27,918.603C1994.52,918.238 1994.575,917.773 1994.417,917.36L1990.14,906.221C1989.94,905.701 1989.44,905.358 1988.883,905.359C1988.326,905.36 1987.828,905.705 1987.63,906.226L1983.403,917.365ZM2016.218,938.408C2015.476,938.408 2014.875,937.807 2014.875,937.065L2014.875,893.035C2014.875,892.679 2015.016,892.338 2015.268,892.086C2015.52,891.834 2015.862,891.692 2016.218,891.692L2038.233,891.692C2043.746,891.692 2047.808,893.143 2050.419,896.045C2053.031,898.946 2054.336,902.839 2054.336,907.724C2054.336,910.867 2053.539,913.623 2051.943,915.993C2050.676,917.874 2049.043,919.375 2047.044,920.494C2046.702,920.682 2046.46,921.01 2046.381,921.392C2046.303,921.774 2046.396,922.171 2046.636,922.479C2046.782,922.671 2046.92,922.866 2047.046,923.066C2047.457,923.719 2047.905,924.625 2048.388,925.786L2053.08,936.527C2053.261,936.943 2053.221,937.421 2052.973,937.8C2052.725,938.179 2052.302,938.408 2051.849,938.408L2042.592,938.408C2042.059,938.408 2041.576,938.093 2041.362,937.605L2036.492,926.511C2036.056,925.496 2035.5,924.758 2034.823,924.299C2034.146,923.84 2033.179,923.61 2031.922,923.61L2027.897,923.61C2027.541,923.61 2027.199,923.751 2026.947,924.003C2026.695,924.255 2026.554,924.597 2026.554,924.953L2026.554,937.065C2026.554,937.807 2025.952,938.408 2025.211,938.408L2016.218,938.408ZM2026.554,913.272C2026.554,914.014 2027.155,914.615 2027.897,914.615L2035.186,914.615C2037.459,914.615 2039.236,914.047 2040.518,912.91C2041.799,911.774 2042.44,910.045 2042.44,907.724C2042.44,903.033 2040.191,900.687 2035.694,900.687L2027.897,900.687C2027.155,900.687 2026.554,901.289 2026.554,902.03L2026.554,913.272ZM2079.58,939.133C2071.988,939.133 2066.209,937.199 2062.243,933.33C2058.278,929.461 2056.295,923.441 2056.295,915.268C2056.295,906.611 2058.278,900.397 2062.243,896.625C2066.209,892.853 2071.988,890.967 2079.58,890.967C2087.173,890.967 2092.952,892.853 2096.917,896.625C2100.883,900.397 2102.866,906.611 2102.866,915.268C2102.866,923.441 2100.883,929.461 2096.917,933.33C2092.952,937.199 2087.173,939.133 2079.58,939.133ZM2079.58,929.195C2083.498,929.195 2086.363,928.071 2088.176,925.822C2089.99,923.574 2090.897,920.055 2090.897,915.268C2090.897,910.045 2089.99,906.357 2088.176,904.205C2086.363,902.053 2083.498,900.977 2079.58,900.977C2075.615,900.977 2072.725,902.053 2070.912,904.205C2069.098,906.357 2068.192,910.045 2068.192,915.268C2068.192,920.055 2069.098,923.574 2070.912,925.822C2072.725,928.071 2075.615,929.195 2079.58,929.195Z" style="fill:white;"/>
                        </g>
                        <g transform="matrix(1.303579,0,0,1.187496,7645.680543,-147.667474)">
                            <path d="M1841.878,938.408C1841.136,938.408 1840.535,937.807 1840.535,937.065L1840.535,893.035C1840.535,892.294 1841.136,891.692 1841.878,891.692L1873.14,891.692C1873.882,891.692 1874.483,892.294 1874.483,893.035L1874.483,899.344C1874.483,899.7 1874.342,900.042 1874.09,900.294C1873.838,900.546 1873.497,900.687 1873.14,900.687L1853.557,900.687C1852.815,900.687 1852.214,901.289 1852.214,902.03L1852.214,909.137C1852.214,909.879 1852.815,910.48 1853.557,910.48L1870.456,910.48C1870.813,910.48 1871.154,910.622 1871.406,910.873C1871.658,911.125 1871.799,911.467 1871.799,911.823L1871.799,918.277C1871.799,918.633 1871.658,918.975 1871.406,919.227C1871.154,919.479 1870.813,919.62 1870.456,919.62L1853.557,919.62C1853.201,919.62 1852.859,919.762 1852.607,920.013C1852.355,920.265 1852.214,920.607 1852.214,920.963L1852.214,937.065C1852.214,937.807 1851.612,938.408 1850.871,938.408L1841.878,938.408ZM1882.137,938.408C1881.396,938.408 1880.794,937.807 1880.794,937.065L1880.794,893.035C1880.794,892.294 1881.396,891.692 1882.137,891.692L1913.908,891.692C1914.264,891.692 1914.606,891.834 1914.857,892.086C1915.109,892.338 1915.251,892.679 1915.251,893.035L1915.251,899.344C1915.251,899.7 1915.109,900.042 1914.857,900.294C1914.606,900.546 1914.264,900.687 1913.908,900.687L1893.816,900.687C1893.075,900.687 1892.473,901.289 1892.473,902.03L1892.473,909.137C1892.473,909.879 1893.075,910.48 1893.816,910.48L1911.224,910.48C1911.58,910.48 1911.922,910.622 1912.173,910.873C1912.425,911.125 1912.567,911.467 1912.567,911.823L1912.567,918.277C1912.567,918.633 1912.425,918.975 1912.173,919.227C1911.922,919.479 1911.58,919.62 1911.224,919.62L1893.816,919.62C1893.075,919.62 1892.473,920.221 1892.473,920.963L1892.473,928.07C1892.473,928.812 1893.075,929.413 1893.816,929.413L1913.908,929.413C1914.264,929.413 1914.606,929.554 1914.857,929.806C1915.109,930.058 1915.251,930.4 1915.251,930.756L1915.251,937.065C1915.251,937.421 1915.109,937.763 1914.857,938.015C1914.606,938.266 1914.264,938.408 1913.908,938.408L1882.137,938.408ZM1924.903,938.408C1924.161,938.408 1923.56,937.807 1923.56,937.065L1923.56,893.035C1923.56,892.679 1923.701,892.338 1923.953,892.086C1924.205,891.834 1924.547,891.692 1924.903,891.692L1946.918,891.692C1952.431,891.692 1956.493,893.143 1959.104,896.045C1961.716,898.946 1963.021,902.839 1963.021,907.724C1963.021,910.867 1962.223,913.623 1960.628,915.993C1959.361,917.874 1957.728,919.375 1955.729,920.494C1955.387,920.682 1955.145,921.01 1955.066,921.392C1954.988,921.774 1955.081,922.171 1955.321,922.479C1955.467,922.671 1955.605,922.866 1955.731,923.066C1956.142,923.719 1956.59,924.625 1957.073,925.786L1961.765,936.527C1961.946,936.943 1961.906,937.421 1961.658,937.8C1961.41,938.179 1960.987,938.408 1960.534,938.408L1951.277,938.408C1950.744,938.408 1950.261,938.093 1950.047,937.605L1945.177,926.511C1944.741,925.496 1944.185,924.758 1943.508,924.299C1942.831,923.84 1941.864,923.61 1940.607,923.61L1936.582,923.61C1936.225,923.61 1935.884,923.751 1935.632,924.003C1935.38,924.255 1935.239,924.597 1935.239,924.953L1935.239,937.065C1935.239,937.807 1934.637,938.408 1933.896,938.408L1924.903,938.408ZM1935.239,913.272C1935.239,914.014 1935.84,914.615 1936.582,914.615L1943.871,914.615C1946.144,914.615 1947.921,914.047 1949.203,912.91C1950.484,911.774 1951.125,910.045 1951.125,907.724C1951.125,903.033 1948.876,900.687 1944.379,900.687L1936.582,900.687C1935.84,900.687 1935.239,901.289 1935.239,902.03L1935.239,913.272ZM1971.216,938.408C1970.475,938.408 1969.873,937.807 1969.873,937.065L1969.873,893.035C1969.873,892.679 1970.015,892.338 1970.267,892.086C1970.519,891.834 1970.86,891.692 1971.216,891.692L1993.231,891.692C1998.744,891.692 2002.806,893.143 2005.418,896.045C2008.029,898.946 2009.335,902.839 2009.335,907.724C2009.335,910.867 2008.537,913.623 2006.941,915.993C2005.674,917.874 2004.041,919.375 2002.043,920.494C2001.701,920.682 2001.459,921.01 2001.38,921.392C2001.301,921.774 2001.394,922.171 2001.634,922.479C2001.78,922.671 2001.919,922.866 2002.045,923.066C2002.456,923.719 2002.903,924.625 2003.387,925.786L2008.078,936.527C2008.26,936.943 2008.219,937.421 2007.971,937.8C2007.723,938.179 2007.301,938.408 2006.847,938.408L1997.59,938.408C1997.057,938.408 1996.575,938.093 1996.36,937.605L1991.49,926.511C1991.055,925.496 1990.499,924.758 1989.822,924.299C1989.145,923.84 1988.177,923.61 1986.92,923.61L1982.895,923.61C1982.539,923.61 1982.197,923.751 1981.946,924.003C1981.694,924.255 1981.552,924.597 1981.552,924.953L1981.552,937.065C1981.552,937.807 1980.951,938.408 1980.209,938.408L1971.216,938.408ZM1981.552,913.272C1981.552,914.014 1982.153,914.615 1982.895,914.615L1990.184,914.615C1992.457,914.615 1994.235,914.047 1995.516,912.91C1996.798,911.774 1997.438,910.045 1997.438,907.724C1997.438,903.033 1995.19,900.687 1990.692,900.687L1982.895,900.687C1982.153,900.687 1981.552,901.289 1981.552,902.03L1981.552,913.272ZM2014.787,938.408C2014.345,938.408 2013.932,938.191 2013.681,937.827C2013.43,937.462 2013.375,936.998 2013.533,936.586L2030.351,892.556C2030.55,892.036 2031.049,891.692 2031.606,891.692L2042.379,891.692C2042.935,891.692 2043.435,892.036 2043.633,892.556L2060.452,936.586C2060.61,936.998 2060.554,937.462 2060.304,937.827C2060.053,938.191 2059.639,938.408 2059.197,938.408L2049.873,938.408C2049.323,938.408 2048.828,938.072 2048.625,937.561L2045.091,928.664C2044.887,928.153 2044.393,927.817 2043.842,927.817L2030.075,927.817C2029.522,927.817 2029.026,928.156 2028.824,928.672L2025.357,937.553C2025.156,938.069 2024.659,938.408 2024.106,938.408L2014.787,938.408ZM2031.444,917.365C2031.288,917.778 2031.344,918.241 2031.595,918.605C2031.845,918.968 2032.259,919.185 2032.7,919.185L2041.204,919.185C2041.646,919.185 2042.06,918.967 2042.311,918.603C2042.561,918.238 2042.616,917.773 2042.458,917.36L2038.181,906.221C2037.981,905.701 2037.481,905.358 2036.924,905.359C2036.368,905.36 2035.869,905.705 2035.671,906.226L2031.444,917.365ZM2065.651,938.408C2065.294,938.408 2064.953,938.266 2064.701,938.015C2064.449,937.763 2064.308,937.421 2064.308,937.065L2064.308,932.881C2064.308,932.607 2064.392,932.339 2064.548,932.114L2084.746,903.088C2085.032,902.677 2085.066,902.142 2084.834,901.699C2084.603,901.255 2084.144,900.977 2083.644,900.977L2066.739,900.977C2066.383,900.977 2066.041,900.836 2065.789,900.584C2065.537,900.332 2065.396,899.991 2065.396,899.634L2065.396,893.035C2065.396,892.679 2065.537,892.338 2065.789,892.086C2066.041,891.834 2066.383,891.692 2066.739,891.692L2100.177,891.692C2100.534,891.692 2100.875,891.834 2101.127,892.086C2101.379,892.338 2101.521,892.679 2101.521,893.035L2101.521,897.8C2101.521,898.074 2101.437,898.342 2101.28,898.567L2081.298,927.303C2081.013,927.714 2080.979,928.249 2081.211,928.692C2081.442,929.135 2081.901,929.413 2082.401,929.413L2100.613,929.413C2101.354,929.413 2101.956,930.014 2101.956,930.756L2101.956,937.065C2101.956,937.421 2101.814,937.763 2101.562,938.015C2101.311,938.266 2100.969,938.408 2100.613,938.408L2065.651,938.408Z" style="fill:rgb(0,134,205);"/>
                        </g>
                    </g>
                </g>
            </g>
        </g>
    </g>
</svg>
