<?xml version="1.0" encoding="UTF-8" standalone="no"?>
<!DOCTYPE svg PUBLIC "-//W3C//DTD SVG 1.1//EN" "http://www.w3.org/Graphics/SVG/1.1/DTD/svg11.dtd">
<svg width="100%" height="100%" viewBox="0 0 621 1081" version="1.1" xmlns="http://www.w3.org/2000/svg" xmlns:xlink="http://www.w3.org/1999/xlink" xml:space="preserve" xmlns:serif="http://www.serif.com/" style="fill-rule:evenodd;clip-rule:evenodd;stroke-linejoin:round;stroke-miterlimit:2;">
    <g transform="matrix(1,0,0,1,-4237,-500)">
        <g id="lg-vt-bw-white" transform="matrix(0.284497,0,0,0.499573,2928.948577,500.262938)">
            <rect x="4600.023" y="0" width="2179.282" height="2161.846" style="fill:none;"/>
            <g id="simbolo" transform="matrix(17.55267,0,0,9.995913,-137281.807009,-8806.682394)">
                <path d="M8112.239,940.867C8113.631,939.973 8114.742,938.681 8115.411,937.151C8115.518,936.895 8115.807,936.768 8116.068,936.863C8122.469,939.191 8191.824,964.452 8196.279,966.075C8196.414,966.124 8196.503,966.252 8196.503,966.395L8196.503,1034.817C8196.503,1038.491 8193.655,1041.47 8190.142,1041.47L8100.425,1041.47C8096.911,1041.47 8094.063,1038.491 8094.063,1034.817L8094.063,897.522C8094.063,893.847 8096.911,890.868 8100.425,890.868L8190.142,890.868C8193.655,890.868 8196.503,893.847 8196.503,897.522L8196.503,901.188C8196.503,901.332 8196.414,901.46 8196.279,901.509L8116.069,930.724C8115.807,930.819 8115.516,930.691 8115.408,930.434C8114.114,927.466 8111.152,925.391 8107.709,925.391C8103.072,925.391 8099.308,929.155 8099.308,933.792C8099.308,938.429 8103.072,942.193 8107.709,942.193L8107.785,942.193L8107.951,1018.505C8107.952,1018.806 8108.122,1019.082 8108.394,1019.227C8108.666,1019.372 8108.998,1019.361 8109.26,1019.2L8145.811,995.2C8146.151,994.991 8146.212,994.627 8146.014,994.303L8112.239,940.867ZM8181.886,980.782L8109.292,1027.377C8108.899,1027.63 8108.718,1028.115 8108.848,1028.567C8108.979,1029.019 8109.389,1029.33 8109.855,1029.329L8182.45,1029.17C8183.027,1029.169 8183.494,1028.696 8183.494,1028.112L8183.494,981.675C8183.494,981.289 8183.286,980.934 8182.952,980.748C8182.617,980.562 8182.209,980.575 8181.886,980.782ZM8116.037,932.674C8116.01,932.478 8116.144,932.296 8116.339,932.261L8196.103,918.216C8196.202,918.199 8196.304,918.226 8196.381,918.291C8196.459,918.356 8196.503,918.451 8196.503,918.552L8196.503,925.604C8196.503,925.781 8196.368,925.928 8196.192,925.944L8116.447,933.012C8116.245,933.029 8116.065,932.885 8116.038,932.684L8116.037,932.674ZM8116.039,934.892C8116.065,934.695 8116.241,934.554 8116.438,934.571L8196.192,941.639C8196.368,941.655 8196.503,941.803 8196.503,941.979L8196.503,949.031C8196.503,949.132 8196.459,949.228 8196.381,949.293C8196.304,949.358 8196.202,949.385 8196.103,949.367L8116.347,935.324C8116.148,935.288 8116.012,935.102 8116.038,934.901L8116.039,934.892ZM8094.588,1067.224C8094.298,1067.224 8094.063,1066.989 8094.063,1066.699L8094.063,1049.506C8094.063,1049.216 8094.298,1048.981 8094.588,1048.981L8098.099,1048.981C8098.389,1048.981 8098.624,1049.216 8098.624,1049.506L8098.624,1063.187C8098.624,1063.477 8098.858,1063.711 8099.148,1063.711L8106.711,1063.711C8106.85,1063.711 8106.983,1063.767 8107.081,1063.865C8107.18,1063.963 8107.235,1064.097 8107.235,1064.236L8107.235,1066.699C8107.235,1066.989 8107,1067.224 8106.711,1067.224L8094.588,1067.224ZM8116.143,1047.202C8115.972,1047.202 8115.811,1047.119 8115.713,1046.978C8115.615,1046.838 8115.592,1046.659 8115.65,1046.498L8115.811,1046.059C8115.869,1045.901 8115.999,1045.78 8116.162,1045.734L8119.519,1044.796C8119.696,1044.746 8119.885,1044.793 8120.019,1044.918C8120.153,1045.044 8120.211,1045.23 8120.173,1045.41L8119.882,1046.786C8119.831,1047.029 8119.617,1047.202 8119.369,1047.202L8116.143,1047.202ZM8108.62,1067.224C8108.447,1067.224 8108.286,1067.139 8108.188,1066.997C8108.09,1066.855 8108.068,1066.674 8108.13,1066.512L8114.698,1049.319C8114.775,1049.116 8114.97,1048.981 8115.188,1048.981L8119.394,1048.981C8119.612,1048.981 8119.807,1049.116 8119.884,1049.319L8126.452,1066.512C8126.514,1066.674 8126.492,1066.855 8126.394,1066.997C8126.296,1067.139 8126.135,1067.224 8125.962,1067.224L8122.321,1067.224C8122.106,1067.224 8121.913,1067.093 8121.834,1066.893L8120.453,1063.419C8120.374,1063.219 8120.181,1063.088 8119.966,1063.088L8114.59,1063.088C8114.374,1063.088 8114.18,1063.221 8114.101,1063.422L8112.747,1066.89C8112.669,1067.091 8112.475,1067.224 8112.259,1067.224L8108.62,1067.224ZM8115.125,1059.007C8115.063,1059.168 8115.085,1059.349 8115.183,1059.491C8115.281,1059.633 8115.443,1059.717 8115.615,1059.717L8118.936,1059.717C8119.108,1059.717 8119.27,1059.632 8119.368,1059.49C8119.466,1059.348 8119.487,1059.166 8119.425,1059.005L8117.755,1054.655C8117.677,1054.452 8117.482,1054.318 8117.265,1054.318C8117.047,1054.319 8116.852,1054.453 8116.775,1054.657L8115.125,1059.007ZM8127.836,1067.224C8127.696,1067.224 8127.563,1067.169 8127.465,1067.07C8127.366,1066.972 8127.311,1066.839 8127.311,1066.699L8127.311,1065.066C8127.311,1064.959 8127.344,1064.854 8127.405,1064.766L8135.292,1053.431C8135.404,1053.271 8135.417,1053.062 8135.327,1052.889C8135.236,1052.716 8135.057,1052.607 8134.862,1052.607L8128.26,1052.607C8128.121,1052.607 8127.988,1052.552 8127.89,1052.454C8127.791,1052.355 8127.736,1052.222 8127.736,1052.083L8127.736,1049.506C8127.736,1049.367 8127.791,1049.233 8127.89,1049.135C8127.988,1049.037 8128.121,1048.981 8128.26,1048.981L8141.318,1048.981C8141.457,1048.981 8141.591,1049.037 8141.689,1049.135C8141.787,1049.233 8141.843,1049.367 8141.843,1049.506L8141.843,1051.366C8141.843,1051.473 8141.81,1051.578 8141.749,1051.666L8133.946,1062.888C8133.834,1063.048 8133.821,1063.257 8133.912,1063.43C8134.002,1063.603 8134.181,1063.711 8134.376,1063.711L8141.488,1063.711C8141.778,1063.711 8142.013,1063.946 8142.013,1064.236L8142.013,1066.699C8142.013,1066.839 8141.957,1066.972 8141.859,1067.07C8141.761,1067.169 8141.627,1067.224 8141.488,1067.224L8127.836,1067.224ZM8143.349,1067.224C8143.176,1067.224 8143.015,1067.139 8142.917,1066.997C8142.819,1066.855 8142.797,1066.674 8142.859,1066.512L8149.426,1049.319C8149.504,1049.116 8149.699,1048.981 8149.916,1048.981L8154.123,1048.981C8154.341,1048.981 8154.535,1049.116 8154.613,1049.319L8161.181,1066.512C8161.242,1066.674 8161.221,1066.855 8161.123,1066.997C8161.025,1067.139 8160.863,1067.224 8160.691,1067.224L8157.05,1067.224C8156.835,1067.224 8156.642,1067.093 8156.562,1066.893L8155.182,1063.419C8155.103,1063.219 8154.91,1063.088 8154.695,1063.088L8149.319,1063.088C8149.103,1063.088 8148.909,1063.221 8148.83,1063.422L8147.476,1066.89C8147.398,1067.091 8147.204,1067.224 8146.988,1067.224L8143.349,1067.224ZM8149.853,1059.007C8149.792,1059.168 8149.814,1059.349 8149.912,1059.491C8150.01,1059.633 8150.171,1059.717 8150.344,1059.717L8153.664,1059.717C8153.837,1059.717 8153.999,1059.632 8154.097,1059.49C8154.194,1059.348 8154.216,1059.166 8154.154,1059.005L8152.484,1054.655C8152.406,1054.452 8152.211,1054.318 8151.993,1054.318C8151.776,1054.319 8151.581,1054.453 8151.504,1054.657L8149.853,1059.007ZM8162.667,1067.224C8162.378,1067.224 8162.143,1066.989 8162.143,1066.699L8162.143,1049.506C8162.143,1049.367 8162.198,1049.233 8162.297,1049.135C8162.395,1049.037 8162.528,1048.981 8162.667,1048.981L8171.264,1048.981C8173.417,1048.981 8175.003,1049.548 8176.023,1050.681C8177.043,1051.814 8177.553,1053.334 8177.553,1055.242C8177.553,1056.469 8177.241,1057.546 8176.618,1058.471C8176.123,1059.206 8175.486,1059.791 8174.705,1060.228C8174.572,1060.302 8174.477,1060.43 8174.446,1060.579C8174.416,1060.728 8174.452,1060.884 8174.546,1061.004C8174.603,1061.079 8174.657,1061.155 8174.706,1061.233C8174.866,1061.488 8175.041,1061.842 8175.23,1062.295L8177.062,1066.49C8177.133,1066.652 8177.117,1066.839 8177.02,1066.987C8176.923,1067.135 8176.758,1067.224 8176.581,1067.224L8172.966,1067.224C8172.758,1067.224 8172.57,1067.101 8172.486,1066.91L8170.584,1062.578C8170.414,1062.182 8170.197,1061.894 8169.933,1061.714C8169.668,1061.535 8169.291,1061.445 8168.8,1061.445L8167.228,1061.445C8167.089,1061.445 8166.956,1061.501 8166.857,1061.599C8166.759,1061.697 8166.704,1061.831 8166.704,1061.97L8166.704,1066.699C8166.704,1066.989 8166.469,1067.224 8166.179,1067.224L8162.667,1067.224ZM8166.704,1057.408C8166.704,1057.698 8166.938,1057.933 8167.228,1057.933L8170.074,1057.933C8170.962,1057.933 8171.656,1057.711 8172.156,1057.267C8172.657,1056.823 8172.907,1056.148 8172.907,1055.242C8172.907,1053.41 8172.029,1052.494 8170.273,1052.494L8167.228,1052.494C8166.938,1052.494 8166.704,1052.729 8166.704,1053.018L8166.704,1057.408ZM8187.41,1067.507C8184.446,1067.507 8182.189,1066.752 8180.64,1065.241C8179.092,1063.73 8178.318,1061.379 8178.318,1058.188C8178.318,1054.807 8179.092,1052.381 8180.64,1050.908C8182.189,1049.435 8184.446,1048.698 8187.41,1048.698C8190.375,1048.698 8192.632,1049.435 8194.181,1050.908C8195.729,1052.381 8196.503,1054.807 8196.503,1058.188C8196.503,1061.379 8195.729,1063.73 8194.181,1065.241C8192.632,1066.752 8190.375,1067.507 8187.41,1067.507ZM8187.41,1063.626C8188.94,1063.626 8190.059,1063.187 8190.767,1062.309C8191.475,1061.431 8191.829,1060.057 8191.829,1058.188C8191.829,1056.148 8191.475,1054.708 8190.767,1053.868C8190.059,1053.027 8188.94,1052.607 8187.41,1052.607C8185.862,1052.607 8184.734,1053.027 8184.025,1053.868C8183.317,1054.708 8182.963,1056.148 8182.963,1058.188C8182.963,1060.057 8183.317,1061.431 8184.025,1062.309C8184.734,1063.187 8185.862,1063.626 8187.41,1063.626ZM8094.585,1087.461C8094.297,1087.461 8094.063,1087.248 8094.063,1086.986L8094.063,1071.396C8094.063,1071.133 8094.297,1070.92 8094.585,1070.92L8106.737,1070.92C8107.025,1070.92 8107.259,1071.133 8107.259,1071.396L8107.259,1073.63C8107.259,1073.756 8107.204,1073.877 8107.106,1073.966C8107.008,1074.055 8106.875,1074.105 8106.737,1074.105L8099.125,1074.105C8098.836,1074.105 8098.603,1074.318 8098.603,1074.581L8098.603,1077.097C8098.603,1077.36 8098.836,1077.573 8099.125,1077.573L8105.693,1077.573C8105.832,1077.573 8105.965,1077.623 8106.063,1077.712C8106.16,1077.801 8106.215,1077.922 8106.215,1078.048L8106.215,1080.333C8106.215,1080.46 8106.16,1080.58 8106.063,1080.67C8105.965,1080.759 8105.832,1080.809 8105.693,1080.809L8099.125,1080.809C8098.986,1080.809 8098.853,1080.859 8098.755,1080.948C8098.658,1081.037 8098.603,1081.158 8098.603,1081.284L8098.603,1086.986C8098.603,1087.248 8098.369,1087.461 8098.081,1087.461L8094.585,1087.461ZM8110.234,1087.461C8109.945,1087.461 8109.712,1087.248 8109.712,1086.986L8109.712,1071.396C8109.712,1071.133 8109.945,1070.92 8110.234,1070.92L8122.583,1070.92C8122.721,1070.92 8122.854,1070.97 8122.952,1071.06C8123.05,1071.149 8123.105,1071.27 8123.105,1071.396L8123.105,1073.63C8123.105,1073.756 8123.05,1073.877 8122.952,1073.966C8122.854,1074.055 8122.721,1074.105 8122.583,1074.105L8114.773,1074.105C8114.485,1074.105 8114.251,1074.318 8114.251,1074.581L8114.251,1077.097C8114.251,1077.36 8114.485,1077.573 8114.773,1077.573L8121.539,1077.573C8121.678,1077.573 8121.811,1077.623 8121.909,1077.712C8122.006,1077.801 8122.061,1077.922 8122.061,1078.048L8122.061,1080.333C8122.061,1080.46 8122.006,1080.58 8121.909,1080.67C8121.811,1080.759 8121.678,1080.809 8121.539,1080.809L8114.773,1080.809C8114.485,1080.809 8114.251,1081.022 8114.251,1081.284L8114.251,1083.801C8114.251,1084.063 8114.485,1084.276 8114.773,1084.276L8122.583,1084.276C8122.721,1084.276 8122.854,1084.326 8122.952,1084.416C8123.05,1084.505 8123.105,1084.626 8123.105,1084.752L8123.105,1086.986C8123.105,1087.112 8123.05,1087.233 8122.952,1087.322C8122.854,1087.411 8122.721,1087.461 8122.583,1087.461L8110.234,1087.461ZM8126.856,1087.461C8126.568,1087.461 8126.334,1087.248 8126.334,1086.986L8126.334,1071.396C8126.334,1071.27 8126.389,1071.149 8126.487,1071.06C8126.585,1070.97 8126.718,1070.92 8126.856,1070.92L8135.413,1070.92C8137.556,1070.92 8139.135,1071.434 8140.15,1072.461C8141.165,1073.489 8141.673,1074.867 8141.673,1076.597C8141.673,1077.71 8141.363,1078.686 8140.742,1079.525C8140.25,1080.191 8139.615,1080.722 8138.838,1081.118C8138.705,1081.185 8138.611,1081.301 8138.581,1081.436C8138.55,1081.572 8138.586,1081.712 8138.68,1081.821C8138.736,1081.889 8138.79,1081.958 8138.839,1082.029C8138.999,1082.26 8139.173,1082.581 8139.361,1082.992L8141.184,1086.795C8141.255,1086.942 8141.239,1087.112 8141.143,1087.246C8141.046,1087.38 8140.882,1087.461 8140.706,1087.461L8137.108,1087.461C8136.9,1087.461 8136.713,1087.35 8136.63,1087.177L8134.737,1083.249C8134.567,1082.889 8134.351,1082.628 8134.088,1082.466C8133.825,1082.303 8133.449,1082.222 8132.96,1082.222L8131.396,1082.222C8131.257,1082.222 8131.125,1082.272 8131.027,1082.361C8130.929,1082.45 8130.874,1082.571 8130.874,1082.697L8130.874,1086.986C8130.874,1087.248 8130.64,1087.461 8130.352,1087.461L8126.856,1087.461ZM8130.874,1078.561C8130.874,1078.824 8131.108,1079.037 8131.396,1079.037L8134.229,1079.037C8135.113,1079.037 8135.803,1078.835 8136.301,1078.433C8136.8,1078.031 8137.049,1077.419 8137.049,1076.597C8137.049,1074.936 8136.175,1074.105 8134.426,1074.105L8131.396,1074.105C8131.108,1074.105 8130.874,1074.318 8130.874,1074.581L8130.874,1078.561ZM8144.858,1087.461C8144.57,1087.461 8144.336,1087.248 8144.336,1086.986L8144.336,1071.396C8144.336,1071.27 8144.391,1071.149 8144.489,1071.06C8144.587,1070.97 8144.72,1070.92 8144.858,1070.92L8153.415,1070.92C8155.558,1070.92 8157.137,1071.434 8158.152,1072.461C8159.167,1073.489 8159.675,1074.867 8159.675,1076.597C8159.675,1077.71 8159.364,1078.686 8158.744,1079.525C8158.252,1080.191 8157.617,1080.722 8156.84,1081.118C8156.707,1081.185 8156.613,1081.301 8156.582,1081.436C8156.552,1081.572 8156.588,1081.712 8156.681,1081.821C8156.738,1081.889 8156.792,1081.958 8156.841,1082.029C8157.001,1082.26 8157.174,1082.581 8157.362,1082.992L8159.186,1086.795C8159.257,1086.942 8159.241,1087.112 8159.144,1087.246C8159.048,1087.38 8158.884,1087.461 8158.708,1087.461L8155.109,1087.461C8154.902,1087.461 8154.715,1087.35 8154.631,1087.177L8152.738,1083.249C8152.569,1082.889 8152.353,1082.628 8152.09,1082.466C8151.827,1082.303 8151.451,1082.222 8150.962,1082.222L8149.398,1082.222C8149.259,1082.222 8149.126,1082.272 8149.028,1082.361C8148.931,1082.45 8148.876,1082.571 8148.876,1082.697L8148.876,1086.986C8148.876,1087.248 8148.642,1087.461 8148.354,1087.461L8144.858,1087.461ZM8148.876,1078.561C8148.876,1078.824 8149.109,1079.037 8149.398,1079.037L8152.231,1079.037C8153.114,1079.037 8153.805,1078.835 8154.303,1078.433C8154.801,1078.031 8155.05,1077.419 8155.05,1076.597C8155.05,1074.936 8154.176,1074.105 8152.428,1074.105L8149.398,1074.105C8149.109,1074.105 8148.876,1074.318 8148.876,1074.581L8148.876,1078.561ZM8161.794,1087.461C8161.622,1087.461 8161.461,1087.384 8161.364,1087.255C8161.266,1087.127 8161.245,1086.962 8161.306,1086.816L8167.843,1071.226C8167.921,1071.042 8168.115,1070.92 8168.331,1070.92L8172.518,1070.92C8172.735,1070.92 8172.929,1071.042 8173.006,1071.226L8179.543,1086.816C8179.605,1086.962 8179.583,1087.127 8179.486,1087.255C8179.388,1087.384 8179.227,1087.461 8179.056,1087.461L8175.431,1087.461C8175.217,1087.461 8175.025,1087.342 8174.946,1087.161L8173.573,1084.011C8173.494,1083.83 8173.301,1083.711 8173.087,1083.711L8167.736,1083.711C8167.521,1083.711 8167.328,1083.831 8167.25,1084.014L8165.902,1087.159C8165.824,1087.341 8165.631,1087.461 8165.416,1087.461L8161.794,1087.461ZM8168.268,1080.011C8168.207,1080.157 8168.229,1080.321 8168.327,1080.449C8168.424,1080.578 8168.585,1080.655 8168.756,1080.655L8172.062,1080.655C8172.234,1080.655 8172.395,1080.578 8172.492,1080.449C8172.589,1080.32 8172.611,1080.155 8172.549,1080.009L8170.887,1076.065C8170.809,1075.88 8170.615,1075.759 8170.398,1075.759C8170.182,1075.76 8169.988,1075.882 8169.911,1076.066L8168.268,1080.011ZM8181.564,1087.461C8181.426,1087.461 8181.293,1087.411 8181.195,1087.322C8181.097,1087.233 8181.042,1087.112 8181.042,1086.986L8181.042,1085.504C8181.042,1085.407 8181.075,1085.312 8181.136,1085.233L8188.986,1074.955C8189.097,1074.81 8189.111,1074.62 8189.021,1074.463C8188.931,1074.306 8188.752,1074.208 8188.558,1074.208L8181.987,1074.208C8181.849,1074.208 8181.716,1074.158 8181.618,1074.069C8181.52,1073.979 8181.465,1073.858 8181.465,1073.732L8181.465,1071.396C8181.465,1071.27 8181.52,1071.149 8181.618,1071.06C8181.716,1070.97 8181.849,1070.92 8181.987,1070.92L8194.984,1070.92C8195.123,1070.92 8195.256,1070.97 8195.354,1071.06C8195.451,1071.149 8195.506,1071.27 8195.506,1071.396L8195.506,1073.083C8195.506,1073.18 8195.474,1073.275 8195.413,1073.354L8187.646,1083.529C8187.535,1083.675 8187.522,1083.864 8187.612,1084.021C8187.702,1084.178 8187.88,1084.276 8188.075,1084.276L8195.154,1084.276C8195.442,1084.276 8195.676,1084.489 8195.676,1084.752L8195.676,1086.986C8195.676,1087.112 8195.621,1087.233 8195.523,1087.322C8195.425,1087.411 8195.292,1087.461 8195.154,1087.461L8181.564,1087.461Z" style="fill:white;"/>
            </g>
        </g>
    </g>
</svg>
