<?xml version="1.0" encoding="UTF-8" standalone="no"?>
<!DOCTYPE svg PUBLIC "-//W3C//DTD SVG 1.1//EN" "http://www.w3.org/Graphics/SVG/1.1/DTD/svg11.dtd">
<svg width="100%" height="100%" viewBox="0 0 1081 1081" version="1.1" xmlns="http://www.w3.org/2000/svg" xmlns:xlink="http://www.w3.org/1999/xlink" xml:space="preserve" xmlns:serif="http://www.serif.com/" style="fill-rule:evenodd;clip-rule:evenodd;stroke-linejoin:round;stroke-miterlimit:2;">
    <g transform="matrix(1,0,0,1,-4007,-1660)">
        <g id="sy-bw-white" transform="matrix(0.495576,0,0,0.499573,1727.98144,1660.060671)">
            <rect x="4600.023" y="0" width="2179.282" height="2161.846" style="fill:none;"/>
            <g transform="matrix(19.871669,0,0,29.904703,-188876.981572,-36171.135243)">
                <path d="M9767.587,1234.669C9768.507,1234.28 9769.241,1233.717 9769.683,1233.051C9769.754,1232.939 9769.945,1232.884 9770.118,1232.925C9774.348,1233.939 9820.184,1244.944 9823.129,1245.651C9823.218,1245.672 9823.277,1245.728 9823.277,1245.791L9823.277,1275.599C9823.277,1277.2 9821.395,1278.497 9819.073,1278.497L9759.779,1278.497C9757.457,1278.497 9755.575,1277.2 9755.575,1275.599L9755.575,1215.786C9755.575,1214.185 9757.457,1212.887 9759.779,1212.887L9819.073,1212.887C9821.395,1212.887 9823.277,1214.185 9823.277,1215.786L9823.277,1217.383C9823.277,1217.446 9823.218,1217.502 9823.129,1217.523L9770.119,1230.25C9769.945,1230.292 9769.753,1230.236 9769.682,1230.124C9768.826,1228.831 9766.869,1227.927 9764.593,1227.927C9761.529,1227.927 9759.041,1229.567 9759.041,1231.587C9759.041,1233.607 9761.529,1235.247 9764.593,1235.247C9764.61,1235.247 9764.627,1235.247 9764.644,1235.247L9764.753,1268.492C9764.754,1268.623 9764.866,1268.744 9765.046,1268.807C9765.226,1268.87 9765.445,1268.866 9765.618,1268.795L9789.775,1258.34C9789.999,1258.249 9790.04,1258.09 9789.909,1257.949L9767.587,1234.669ZM9813.617,1252.058L9765.64,1272.358C9765.38,1272.468 9765.26,1272.679 9765.346,1272.876C9765.433,1273.073 9765.704,1273.208 9766.012,1273.208L9813.989,1273.139C9814.371,1273.138 9814.679,1272.932 9814.679,1272.678L9814.679,1252.448C9814.679,1252.279 9814.542,1252.125 9814.321,1252.044C9814.1,1251.963 9813.83,1251.968 9813.617,1252.058ZM9770.097,1231.1C9770.08,1231.015 9770.168,1230.935 9770.297,1230.92L9823.012,1224.801C9823.078,1224.794 9823.146,1224.806 9823.197,1224.834C9823.248,1224.862 9823.277,1224.904 9823.277,1224.948L9823.277,1228.02C9823.277,1228.097 9823.188,1228.161 9823.072,1228.168L9770.368,1231.247C9770.235,1231.255 9770.116,1231.192 9770.098,1231.104L9770.097,1231.1ZM9770.098,1232.066C9770.115,1231.981 9770.232,1231.919 9770.362,1231.927L9823.072,1235.006C9823.188,1235.013 9823.277,1235.077 9823.277,1235.154L9823.277,1238.226C9823.277,1238.27 9823.248,1238.312 9823.197,1238.34C9823.146,1238.368 9823.078,1238.38 9823.012,1238.373L9770.302,1232.255C9770.17,1232.239 9770.08,1232.158 9770.098,1232.07L9770.098,1232.066Z" style="fill:white;"/>
            </g>
        </g>
    </g>
</svg>
