<?xml version="1.0" encoding="UTF-8" standalone="no"?>
<!DOCTYPE svg PUBLIC "-//W3C//DTD SVG 1.1//EN" "http://www.w3.org/Graphics/SVG/1.1/DTD/svg11.dtd">
<svg width="100%" height="100%" viewBox="0 0 1080 1081" version="1.1" xmlns="http://www.w3.org/2000/svg" xmlns:xlink="http://www.w3.org/1999/xlink" xml:space="preserve" xmlns:serif="http://www.serif.com/" style="fill-rule:evenodd;clip-rule:evenodd;stroke-linejoin:round;stroke-miterlimit:2;">
    <g transform="matrix(1,0,0,1,-8,-1471)">
        <g id="sy-color" transform="matrix(0.495576,0,0,0.499573,-2271.661974,1471.06066)">
            <rect x="4600.023" y="0" width="2179.282" height="2161.846" style="fill:none;"/>
            <clipPath id="_clip1">
                <rect x="4600.023" y="0" width="2179.282" height="2161.846"/>
            </clipPath>
            <g clip-path="url(#_clip1)">
                <g transform="matrix(7.593928,0,0,7.533171,-5442.185245,-7575.708597)">
                    <path d="M1552.434,1034.709C1587.02,1060.918 1609.377,1102.436 1609.377,1149.135C1609.377,1228.329 1545.082,1292.624 1465.888,1292.624C1386.695,1292.624 1322.4,1228.329 1322.4,1149.135C1322.4,1102.436 1344.757,1060.918 1379.342,1034.709L1379.342,1189.917L1396.695,1189.917L1396.695,1023.425C1417.219,1012.096 1440.806,1005.647 1465.888,1005.647C1490.97,1005.647 1514.557,1012.096 1535.081,1023.425L1535.081,1189.917L1552.434,1189.917L1552.434,1034.709ZM1474.565,1110.032L1457.211,1110.032L1457.211,1189.917L1474.565,1189.917L1474.565,1110.032Z" style="fill:rgb(30,30,30);"/>
                </g>
            </g>
        </g>
    </g>
</svg>
