<?xml version="1.0" encoding="UTF-8" standalone="no"?>
<!DOCTYPE svg PUBLIC "-//W3C//DTD SVG 1.1//EN" "http://www.w3.org/Graphics/SVG/1.1/DTD/svg11.dtd">
<svg width="100%" height="100%" viewBox="0 0 1080 1081" version="1.1" xmlns="http://www.w3.org/2000/svg" xmlns:xlink="http://www.w3.org/1999/xlink" xml:space="preserve" xmlns:serif="http://www.serif.com/" style="fill-rule:evenodd;clip-rule:evenodd;stroke-linejoin:round;stroke-miterlimit:2;">
    <g transform="matrix(1,0,0,1,-8,-1665)">
        <g id="sy-cmyk-color" transform="matrix(0.495576,0,0,0.499573,-2271.661974,1665.060671)">
            <rect x="4600.023" y="0" width="2179.282" height="2161.846" style="fill:none;"/>
            <g id="simbolo" transform="matrix(13.133115,0,0,13.02804,-101317.687101,-11506.367629)">
                <g transform="matrix(1.513096,0,0,2.295411,-6667.062223,-1893.206338)">
                    <path d="M9769.683,1233.051C9769.754,1232.939 9769.945,1232.884 9770.118,1232.925C9774.348,1233.939 9820.184,1244.944 9823.129,1245.651C9823.218,1245.672 9823.277,1245.728 9823.277,1245.791L9823.277,1275.599C9823.277,1277.2 9821.395,1278.497 9819.073,1278.497L9759.779,1278.497C9757.457,1278.497 9755.575,1277.2 9755.575,1275.599L9755.575,1215.786C9755.575,1214.185 9757.457,1212.887 9759.779,1212.887L9819.073,1212.887C9821.395,1212.887 9823.277,1214.185 9823.277,1215.786L9823.277,1217.383C9823.277,1217.446 9823.218,1217.502 9823.129,1217.523L9770.119,1230.25C9769.945,1230.292 9769.753,1230.236 9769.682,1230.124C9768.826,1228.831 9766.869,1227.927 9764.593,1227.927C9761.529,1227.927 9759.041,1229.567 9759.041,1231.587C9759.041,1233.607 9761.529,1235.247 9764.593,1235.247C9766.869,1235.247 9768.826,1234.343 9769.683,1233.051ZM9770.097,1231.1C9770.08,1231.015 9770.168,1230.935 9770.297,1230.92L9823.012,1224.801C9823.078,1224.794 9823.146,1224.806 9823.197,1224.834C9823.248,1224.862 9823.277,1224.904 9823.277,1224.948L9823.277,1228.02C9823.277,1228.097 9823.188,1228.161 9823.072,1228.168L9770.368,1231.247C9770.235,1231.255 9770.116,1231.192 9770.098,1231.104L9770.097,1231.1ZM9770.098,1232.066C9770.115,1231.981 9770.232,1231.919 9770.362,1231.927L9823.072,1235.006C9823.188,1235.013 9823.277,1235.077 9823.277,1235.154L9823.277,1238.226C9823.277,1238.27 9823.248,1238.312 9823.197,1238.34C9823.146,1238.368 9823.078,1238.38 9823.012,1238.373L9770.302,1232.255C9770.17,1232.239 9770.08,1232.158 9770.098,1232.07L9770.098,1232.066Z" style="fill:rgb(14,6,47);"/>
                </g>
                <g transform="matrix(0.240447,0,0,0.233052,5808.652541,667.48453)">
                    <path d="M9580.436,1173.052L9720.906,1402.343C9721.727,1403.731 9721.473,1405.293 9720.058,1406.191L9568.047,1509.172C9566.957,1509.864 9565.577,1509.908 9564.444,1509.288C9563.312,1508.667 9562.607,1507.479 9562.605,1506.188L9561.914,1178.742C9568.73,1178.679 9575.082,1176.599 9580.436,1173.052Z" style="fill:rgb(0,134,205);"/>
                </g>
                <g transform="matrix(0.295426,0,0,0.298622,5281.442042,567.549623)">
                    <path d="M9817.834,1383.799C9818.926,1383.106 9820.308,1383.062 9821.44,1383.685C9822.573,1384.307 9823.277,1385.497 9823.277,1386.79L9823.277,1542.294C9823.277,1544.248 9821.695,1545.833 9819.741,1545.838L9574.014,1546.367C9572.437,1546.371 9571.047,1545.331 9570.605,1543.817C9570.163,1542.302 9570.775,1540.678 9572.107,1539.833L9817.834,1383.799Z" style="fill:rgb(0,73,154);"/>
                </g>
            </g>
        </g>
    </g>
</svg>
